<svg xmlns="http://www.w3.org/2000/svg" viewBox="0 0 1000 1000" id="employee-receives-best-employee-award" height="100px" width="100px" transform="rotate(0) scale(1, 1)">
  <g>
    <path fill="#73a580" d="m862.04,603.57c-7.44,24-43.23,138.96-50.95,156.33-8.63,19.41-32.36,55.01-74.43,43.68-42.07-11.32-70.65-102.47-70.65-102.47l10.06,238.02h-351.64s0-22.29,12.94-125.12c12.95-102.83,18.7-238.56,18.7-242.34s-62.74-194.7-64.9-203.86c-1.96-8.32-45.26-178-53.22-209.21-.7-2.77.83-5.63,3.54-6.56l73.98-25.61c2.94-1.02,6.13.59,7.06,3.56,9.66,30.87,57.42,183.59,60.33,195.22,3.23,12.94,87.91,144.54,87.91,144.54,0,0,1.44,68.5,10.43,75.69,8.98,7.2,51.06-24.81,51.06-24.81,0,0,26.61,42.06,33.8,40.63,6.82-1.36,31.94-74.31,34.48-81.73.11-.33.48-.5.81-.37,7.09,2.88,75.16,30.73,89.47,44.53,15.1,14.56,66.34,105.17,66.34,105.17l41.44-58.12c1.59-2.24,4.6-2.96,7.03-1.68l53.7,28.01c2.36,1.23,3.51,3.97,2.71,6.52Z"/>
    <path fill="#363634" d="m484.74,549.48c-2.67,0-4.29-.81-5.42-1.71-1.81-1.45-6.63-5.3-9.7-42.63-1.47-17.91-1.85-35.16-1.85-35.33l-.14-6.55,69.45,57.47-3.01,2.29c-.11.08-10.78,8.18-22.41,15.27-14.3,8.73-22.24,11.2-26.92,11.2Zm-10.79-73.22c1.01,31.08,4.51,63.13,9.12,66.82.17.13,4.22,3.03,25.43-9.9,7.69-4.69,14.95-9.83,18.89-12.69l-53.44-44.23Z"/>
    <path fill="#363634" d="m565.63,564.29c-3.35,0-8.7-3.39-21.6-21.05-7.52-10.3-14.25-20.91-14.32-21.02l-1.63-2.58,69.66-42.42c1.3-.79,2.96-.68,4.14.27,1.18.95,1.64,2.55,1.15,3.99-1.95,5.67-8.86,25.6-16.11,44.25-14.49,37.31-17.98,38-20.29,38.46-.32.06-.65.1-1.01.1Zm-.64-5.81h0Zm.76-.19h0Zm-29.32-36.7c11.03,17.1,24.53,34.87,28.92,36.59,4.17-4.12,16.33-33.65,29.84-72.37l-58.76,35.78Zm64.43-39.24h0s0,0,0,0Zm-1.56-2.56h0,0Z"/>
    <g>
      <path fill="#363634" d="M509.96 872.38h-164.68c-1.66 0-3-1.34-3-3s1.34-3 3-3h164.68c1.66 0 3 1.34 3 3s-1.34 3-3 3ZM399.22 840.74h-43.15c-1.66 0-3-1.34-3-3s1.34-3 3-3h43.15c1.66 0 3 1.34 3 3s-1.34 3-3 3ZM361.11 568.2c-.07 0-.13 0-.2 0-1.65-.11-2.91-1.54-2.8-3.19l6.47-98.52c.11-1.65 1.55-2.9 3.19-2.8 1.65.11 2.91 1.54 2.8 3.19l-6.47 98.52c-.1 1.59-1.42 2.8-2.99 2.8Z"/>
      <path fill="#363634" d="M363.25 535.63c-1.15 0-2.25-.67-2.75-1.79l-15.08-34.3c-.67-1.52.02-3.29 1.54-3.95 1.52-.67 3.29.02 3.95 1.54l15.08 34.3c.67 1.52-.02 3.29-1.54 3.95-.39.17-.8.25-1.21.25ZM667.34 735.7c-1.57 0-2.89-1.22-2.99-2.82l-6.37-103.49c-.1-1.65 1.16-3.08 2.81-3.18 1.65-.1 3.08 1.16 3.18 2.81l6.37 103.49c.1 1.65-1.16 3.08-2.81 3.18-.06 0-.12 0-.19 0ZM722.82 706.27c-.42 0-.85-.09-1.25-.28-1.5-.69-2.16-2.48-1.47-3.98l34.34-74.43c.69-1.5 2.47-2.16 3.98-1.47 1.5.69 2.16 2.48 1.47 3.98l-34.34 74.43c-.51 1.1-1.59 1.74-2.73 1.74ZM345.11 353.55c-1.18 0-2.3-.7-2.78-1.87-.63-1.53.11-3.29 1.64-3.91l35.6-14.56c1.53-.63 3.29.11 3.91 1.64.63 1.53-.11 3.29-1.64 3.91l-35.6 14.56c-.37.15-.76.22-1.13.22ZM585.11 801.19c-.5 0-1.01-.12-1.47-.39-74.06-41.86-199.92-193.81-205.24-200.25-1.05-1.28-.87-3.17.4-4.22 1.28-1.05 3.17-.87 4.22.4 1.3 1.57 130.48 157.54 203.57 198.85 1.44.82 1.95 2.65 1.13 4.09-.55.98-1.57 1.52-2.61 1.52ZM439.49 723.53c-1.11 0-2.18-.62-2.7-1.69l-40.27-83.06c-.72-1.49-.1-3.29 1.39-4.01 1.49-.72 3.29-.1 4.01 1.39l40.27 83.06c.72 1.49.1 3.29-1.39 4.01-.42.2-.87.3-1.31.3Z"/>
    </g>
    <g>
      <path fill="#363634" d="m251.03,151.93l-1.2-2.66c-2.95-6.54-5.33-11.46-7.29-15.04-4.13-7.54-10.61-13.36-14.9-17.21-1.72-1.55-3.08-2.77-4.02-3.83h0c-4.47-5.1-14.57-17.91-11.82-26.78,1.99-6.42,7.22-9.54,10.28-10.87.16-2.75.82-7.39,3.38-10.7,2.57-3.33,7.21-4.9,10.31-5.61.34-2.79,1.59-7.31,5.9-11.01,3.25-2.8,7.84-3.16,12.96-1.13.42-4.22,2.25-11.1,9.54-13.78,6.22-2.29,12-.19,15.76,1.97l.65.38.4.64c6.96,11.16,12.77,21.24,14.52,24.3,3.15.84,10.75,3.25,15.85,7.96,7.32,6.77,6.14,15.1,4.65,25.65-1.09,7.71-1.8,21.81-2.23,30.23-.07,1.34-.13,2.53-.18,3.51l-.09,1.77-1.59.77c-5.35,2.6-11.79,4.62-19.25,6.96-2.99.94-6.09,1.91-9.31,2.98-1.6.53-3.21,1.06-4.83,1.6-8.84,2.92-17.99,5.94-24.82,8.78l-2.69,1.12Zm-22.89-42.7c.7.8,2.01,1.97,3.52,3.32,4.59,4.12,11.53,10.35,16.15,18.79,1.76,3.22,3.83,7.43,6.3,12.83,6.62-2.6,14.7-5.26,22.55-7.85,1.61-.53,3.22-1.06,4.82-1.59,3.27-1.09,6.39-2.06,9.4-3.01,6.47-2.03,12.16-3.81,16.83-5.89.03-.53.05-1.09.08-1.69.43-8.52,1.14-22.78,2.28-30.77,1.62-11.45,1.8-16.17-2.78-20.41-4.9-4.53-13.29-6.58-14.23-6.8-.93-.2-1.76-.82-2.25-1.69-.05-.09-6.45-11.39-14.5-24.34-2.63-1.39-6.33-2.56-10.06-1.19-5.57,2.04-5.77,8.88-5.72,10.68.06.14.12.28.17.41.56,1.34.18,2.95-.98,3.93-1.16.99-2.81,1.11-4.11.31-1.6-.98-7.1-4.01-10.01-1.51-3.74,3.22-3.95,7.3-3.93,8.47.02,1.79-1.22,3.26-2.96,3.52-2.93.47-6.93,1.73-8.49,3.75-1.66,2.14-2.21,6.04-2.17,8.72v.07s0,.07,0,.07c-.05,1.43-.96,2.68-2.3,3.18l-.12.04c-1.06.34-6.46,2.32-8.08,7.57-1.41,4.55,4.51,14.1,10.6,21.04h0Zm67.89-47.71s.02.03.02.04c0-.01-.01-.03-.02-.04Zm-1.65-1.19s.05.01.08.02c-.03,0-.05-.01-.08-.02Zm-56.59-1.48s-.02,0-.03,0c0,0,.02,0,.03,0Zm17.33-6.6s.01.03.02.04l-.02-.04Zm3.62-3.08s.01,0,.02.01c0,0-.01,0-.02-.01Z"/>
      <g>
        <path fill="#363634" d="m281.07,126.6c-.23,0-.47-.03-.71-.09-1.61-.39-2.6-2.02-2.21-3.62,3.07-12.6,8.19-24.27,11.33-30.78-2.4.31-5.59.6-9.7.78-8.23.36-15.35.67-19.28-3.13-1.81-1.75-2.71-4.17-2.68-7.2.03-3.17,2.11-7.78,18.03-15.42,8.18-3.93,16.21-6.82,16.55-6.94,1.56-.56,3.28.25,3.84,1.81.56,1.56-.25,3.28-1.81,3.84-.08.03-8.01,2.89-15.86,6.65-14.38,6.88-14.75,10.1-14.75,10.13-.02,1.77.48,2.45.85,2.82,2.07,2.01,8.86,1.71,14.84,1.45,6.25-.27,10.19-.82,12.39-1.23,1.58-.29,3.16.32,4.12,1.61.96,1.29,1.1,2.98.37,4.41-2.56,5.01-8.9,18.21-12.41,32.62-.33,1.37-1.56,2.29-2.91,2.29Z"/>
        <path fill="#363634" d="M270.72 76.2c-1.03 0-2.04-.54-2.6-1.49l-12.82-22.06c-.83-1.43-.35-3.27 1.09-4.1 1.43-.83 3.27-.35 4.1 1.09l12.82 22.06c.83 1.43.35 3.27-1.09 4.1-.47.28-.99.41-1.5.41ZM254.33 101.85c-1.55 0-3.33-.29-5.32-1.05-12.01-4.6-24.93-20.56-25.48-21.23-1.04-1.29-.83-3.18.46-4.22 1.29-1.04 3.18-.83 4.22.46.12.15 12.45 15.37 22.94 19.39 2.28.87 4.14.89 5.7.05 2.8-1.51 4.25-5.62 4.57-7.08.36-1.61 1.95-2.64 3.57-2.29 1.62.35 2.64 1.93 2.3 3.55-.17.81-1.84 7.98-7.56 11.09-1.29.7-3.1 1.34-5.4 1.34ZM261.14 84.01c-.7 0-1.41-.24-1.98-.74l-22.48-19.7c-1.25-1.09-1.37-2.99-.28-4.23 1.09-1.25 2.99-1.37 4.23-.28l22.48 19.7c1.25 1.09 1.37 2.99.28 4.23-.59.68-1.42 1.02-2.26 1.02Z"/>
        <path fill="#363634" d="m242.35,112.7c-.88,0-1.83-.1-2.88-.35-11.34-2.65-17.1-13.97-17.34-14.45-.74-1.48-.14-3.28,1.34-4.02,1.48-.74,3.28-.14,4.02,1.34.04.09,4.78,9.28,13.34,11.29,2.09.49,3.07-.04,3.62-.48,2.18-1.74,2.63-6.48,2.62-8-.01-1.65,1.32-3.01,2.97-3.03h.03c1.64,0,2.98,1.31,3,2.96.01.9-.03,8.86-4.86,12.74-1.23.99-3.16,2-5.88,2Z"/>
      </g>
    </g>
    <g>
      <path fill="#363634" d="m859.25,601.81l-2.47-1.55c-6.27-3.93-14.8-8.41-23.04-12.74-1.51-.79-3.01-1.58-4.5-2.37-3-1.58-5.89-3.05-8.69-4.46-6.97-3.53-13-6.58-17.85-10.02l-1.44-1.02.2-1.76c.11-.97.25-2.16.4-3.5.96-8.37,2.58-22.39,2.77-30.18.26-10.65.47-19.07,8.79-24.54,5.83-3.83,13.75-4.95,16.95-5.25,2.26-2.77,9.7-11.82,18.31-21.59l.5-.56.7-.26c4.06-1.52,10.11-2.63,15.87.64,6.75,3.83,7.43,10.93,7.15,15.16,5.39-1.16,9.85-.05,12.6,3.24,3.63,4.35,4.13,9.01,4.01,11.82,2.95,1.21,7.26,3.53,9.25,7.23,1.99,3.68,1.88,8.37,1.58,11.1,2.8,1.81,7.45,5.75,8.36,12.41,1.25,9.2-10.81,20.18-16.06,24.47h0c-1.1.9-2.64,1.88-4.59,3.12-4.86,3.09-12.21,7.77-17.52,14.53-2.52,3.21-5.68,7.68-9.66,13.64l-1.62,2.43Zm-51.63-35.04c4.27,2.82,9.58,5.51,15.64,8.57,2.82,1.43,5.74,2.9,8.78,4.51,1.48.78,2.99,1.57,4.49,2.36,7.32,3.84,14.85,7.8,20.96,11.45,3.33-4.92,6.06-8.74,8.32-11.62,5.95-7.57,13.82-12.58,19.02-15.89,1.71-1.09,3.19-2.03,4.02-2.7,7.15-5.85,14.55-14.3,13.91-19.02-.74-5.44-5.74-8.28-6.73-8.79l-.12-.06c-1.25-.72-1.93-2.1-1.75-3.52l.02-.13c.48-2.65.58-6.58-.71-8.96-1.21-2.25-4.95-4.16-7.78-5.1-1.65-.55-2.64-2.2-2.33-3.93.22-1.18.68-5.24-2.48-9.03-2.46-2.95-8.38-.86-10.14-.15-1.4.57-3.01.18-3.99-.99-.98-1.16-1.09-2.81-.28-4.1.04-.07.11-.18.19-.31.34-1.75,1.27-8.54-3.89-11.47-3.46-1.97-7.3-1.42-10.12-.48-9.97,11.34-18.23,21.55-18.32,21.65-.61.76-1.53,1.23-2.51,1.28-.93.06-9.54.71-15.12,4.37-5.21,3.43-5.81,8.12-6.09,19.67-.19,8.06-1.83,22.24-2.8,30.72-.07.59-.13,1.16-.19,1.69Zm83.12-1.01h0,0Zm-3.16-53.61s.01,0,.02,0c0,0-.01,0-.02,0Zm-57.9-6.9s-.01.02-.02.03c0,0,0-.01.02-.03Zm1.8-.92s-.04,0-.06,0c.02,0,.04,0,.06,0Zm40.14-1.59l-.02.03s.01-.02.02-.03Zm-3.12-3.57s-.01,0-.02,0c0,0,.01,0,.02,0Z"/>
      <path fill="#363634" d="M856.81 519.06c-.67 0-1.33-.22-1.89-.67-1.29-1.05-1.48-2.94-.43-4.22l12.68-15.58c1.04-1.28 2.93-1.48 4.22-.43 1.29 1.05 1.48 2.94.43 4.22l-12.68 15.58c-.59.73-1.46 1.11-2.33 1.11ZM875.51 528.89c-.76 0-1.51-.28-2.09-.85-1.19-1.16-1.21-3.06-.05-4.24l9.59-9.83c1.16-1.19 3.06-1.21 4.24-.05 1.19 1.16 1.21 3.06.05 4.24l-9.59 9.83c-.59.6-1.37.91-2.15.91ZM887.97 545.67c-.71 0-1.43-.25-2-.76-1.23-1.1-1.34-3-.23-4.24l9.16-10.23c1.11-1.23 3-1.34 4.24-.23 1.23 1.1 1.34 3 .23 4.24l-9.16 10.23c-.59.66-1.41 1-2.24 1Z"/>
    </g>
    <g>
      <path fill="#363634" d="M464.34 422.93c-4.78 0-12.87-.85-18.83-5.87-4.55-3.83-7-9.3-7.27-16.25-.29-7.6 1.77-13.2 6.14-16.65 7.34-5.8 18.24-2.85 18.7-2.72 1.6.44 2.53 2.1 2.08 3.7-.44 1.6-2.1 2.53-3.69 2.09-.15-.04-8.48-2.24-13.39 1.66-2.77 2.2-4.06 6.13-3.84 11.69.2 5.18 1.92 9.17 5.12 11.88 6.75 5.71 18.07 4.33 18.18 4.31 1.65-.21 3.15.94 3.36 2.59s-.94 3.15-2.58 3.36c-.18.02-1.71.22-3.98.22ZM615.92 421.88c-1.96 0-3.26-.15-3.43-.17-1.65-.2-2.82-1.69-2.63-3.33.2-1.65 1.68-2.82 3.33-2.62.11.01 11.44 1.24 18.11-4.56 3.16-2.75 4.82-6.76 4.95-11.95.14-5.58-1.21-9.5-4.02-11.65-4.95-3.8-13.31-1.49-13.39-1.47-1.59.47-3.26-.44-3.72-2.03-.47-1.59.44-3.26 2.03-3.72.46-.13 11.32-3.23 18.74 2.47 4.41 3.39 6.55 8.96 6.37 16.56-.17 6.95-2.54 12.45-7.04 16.35-6.13 5.31-14.62 6.13-19.3 6.13ZM583.46 492.47c-1.46 0-2.74-1.07-2.96-2.55l-2.99-19.91c-.25-1.64.88-3.17 2.52-3.41 1.64-.24 3.17.88 3.41 2.52l2.99 19.91c.25 1.64-.88 3.17-2.52 3.41-.15.02-.3.03-.45.03ZM492.67 488.38c-.29 0-.59-.04-.88-.13-1.58-.49-2.47-2.17-1.98-3.75l4.42-14.35c.49-1.58 2.17-2.47 3.75-1.98 1.58.49 2.47 2.17 1.98 3.75l-4.42 14.35c-.4 1.29-1.58 2.12-2.87 2.12Z"/>
      <g>
        <path fill="#363634" d="M537.3 431.72s-.07 0-.1 0c-9.91-.33-17.24-3.94-20.73-6.06-1.55-.94-2.51-2.46-2.63-4.17-.12-1.66.58-3.25 1.93-4.36 6.91-5.69 15-18.27 7.31-27.79-7.77-9.61-21.72-3.88-22.31-3.63-1.52.65-3.28-.07-3.93-1.59-.65-1.52.06-3.28 1.58-3.93.76-.32 18.69-7.78 29.33 5.38 9.04 11.18 3.07 26.38-7.3 35.46 3.25 1.83 9.16 4.43 16.96 4.69 1.66.06 2.95 1.44 2.9 3.1-.05 1.62-1.39 2.9-3 2.9ZM580 390.65c-.74 0-1.48-.27-2.06-.82-.49-.46-11.78-10.88-23.77-4.67-1.47.76-3.28.19-4.04-1.29-.76-1.47-.19-3.28 1.29-4.04 15.83-8.19 30.07 5.08 30.66 5.65 1.2 1.14 1.25 3.04.1 4.24-.59.62-1.38.93-2.17.93ZM554.2 403.63c-.67 0-1.34-.22-1.9-.68-1.28-1.05-1.47-2.92-.44-4.2 3.38-4.18 12.75-10.1 24.03-2.65 1.38.91 1.76 2.77.85 4.16s-2.77 1.76-4.16.85c-9.34-6.17-15.4.63-16.07 1.43-.59.72-1.46 1.09-2.32 1.09Z"/>
        <path fill="#363634" d="M512.71 403.64c-.87 0-1.73-.38-2.32-1.1-.67-.8-6.73-7.59-16.06-1.43-1.38.91-3.24.53-4.16-.85-.91-1.38-.53-3.24.85-4.16 11.28-7.46 20.65-1.53 24.03 2.65 1.04 1.29.84 3.18-.45 4.22-.56.45-1.22.67-1.88.67ZM533.92 461.07c-10.12 0-18.84-7.54-20.28-17.55-.21-1.49.23-3 1.22-4.14.99-1.14 2.42-1.8 3.93-1.8h30.26c1.51 0 2.94.65 3.93 1.8.99 1.14 1.43 2.65 1.22 4.14-1.44 10-10.16 17.55-20.28 17.55Zm-14.18-17.49c1.4 6.61 7.33 11.49 14.18 11.49s12.78-4.88 14.18-11.49h-28.35Zm29.31 0h0 0Z"/>
      </g>
      <path fill="#363634" d="M535.36 486.48c-6.16 0-12.32-.84-18.34-2.52-24.49-6.85-42.98-26.55-48.26-51.43l-4.96-23.37c-.34-1.62.69-3.21 2.31-3.56 1.62-.34 3.21.69 3.56 2.31l4.96 23.37c4.81 22.68 21.68 40.65 44.01 46.89 11.74 3.28 24.07 3.05 35.67-.67l8.78-2.82c20.63-6.62 36.53-23.84 41.48-44.93l5.36-22.86c.38-1.61 2-2.61 3.61-2.24 1.61.38 2.61 1.99 2.24 3.61l-5.36 22.86c-5.43 23.14-22.86 42.02-45.49 49.28l-8.78 2.82c-6.77 2.17-13.78 3.26-20.78 3.26ZM635.18 313.25c-2.19 15.59-5.93 20.59-5.93 20.59 0 0 3.74 7.17 3.74 19.65s-10.32 24.31-10.81 24.88c-1.24 5.79-2.72 10.56-3.81 13.7-.81 2.33-3.22 3.67-5.62 3.14l-.14-.04c-2.38-.52-4-2.74-3.78-5.17l2.2-24.18s-5.33-1.28-14.27-2.71c-7.11 2.94-15.58 5.43-23.33 5.03-17.77-.93-24.01-5.62-24.01-5.62 0 0-24.32 11.86-42.42 8.73-7.6-1.31-12.67-3-16-4.53-14.08 3.63-23.07 7.22-23.07 7.22l1.03 19.73c.15 2.78-2.06 5.1-4.84 5.1-1.22 0-2.35-.45-3.2-1.21-.86-.76-1.45-1.81-1.6-3.02l-1.4-10.98s-.69-2.62-1.5-6.94c0 0-15.54-11.92-17.72-34.37-2.18-22.46 7.85-34.62 7.85-34.62 0 0-2.86-21.83 4-30.87 6.85-9.04 20.58-7.48 20.58-7.48 0 0 3.12-22.14 32.13-33.06 29.01-10.92 39.29 4.67 39.29 4.67 0 0 42.11-13.41 61.76 4.37 19.64 17.77 17.46 36.49 17.46 36.49 0 0 15.59 15.9 13.41 31.5Z"/>
    </g>
    <path fill="#363634" d="M283.15 338.99c-1.33 0-2.55-.89-2.9-2.24-10.67-40.68-45.49-173.77-45.29-178.28.23-5.47 10.4-10.61 16.43-13.19 1.52-.65 3.29.06 3.94 1.58s-.06 3.29-1.58 3.94c-6 2.56-11.95 6.29-12.77 7.96 1.14 7.77 27.44 109.25 45.07 176.47.42 1.6-.54 3.24-2.14 3.66-.26.07-.51.1-.76.1ZM361.11 260.98c-1.29 0-2.48-.84-2.87-2.14-14.53-48.22-36.37-120.19-39.42-128.98-1.41-.16-4.68.2-7.52.86-1.62.38-3.23-.63-3.6-2.24-.38-1.61.62-3.23 2.24-3.6 11.45-2.68 13.28.38 13.88 1.38 1.3 2.17 25.73 82.91 40.17 130.85.48 1.59-.42 3.26-2.01 3.74-.29.09-.58.13-.87.13ZM772.83 609.86c-.6 0-1.21-.18-1.74-.56-1.35-.96-1.66-2.84-.7-4.18l22.09-30.98c2.29-3.21 9.01-7.59 10.34-8.44 1.4-.89 3.25-.48 4.14.91.89 1.4.48 3.25-.91 4.14-2.89 1.84-7.49 5.19-8.68 6.86l-22.09 30.98c-.58.82-1.51 1.26-2.45 1.26Z"/>
  </g>
  <g>
    <path fill="#363634" d="M130.51 892.52c-24.05 0-43.62-19.57-43.62-43.62v-100.69c0-24.05 19.57-43.62 43.62-43.62s43.62 19.57 43.62 43.62v100.69c0 24.05-19.57 43.62-43.62 43.62Zm0-181.93c-20.75 0-37.62 16.88-37.62 37.62v100.69c0 20.75 16.88 37.62 37.62 37.62h0c20.75 0 37.62-16.88 37.62-37.62v-100.69c0-20.75-16.88-37.62-37.62-37.62ZM252.05 892.52c-24.05 0-43.62-19.57-43.62-43.62v-220.78c0-24.05 19.57-43.62 43.62-43.62s43.62 19.57 43.62 43.62v220.78c0 24.05-19.57 43.62-43.62 43.62Zm0-302.02c-20.75 0-37.62 16.88-37.62 37.62v220.78c0 20.75 16.88 37.62 37.62 37.62h0c20.75 0 37.62-16.88 37.62-37.62v-220.78c0-20.75-16.88-37.62-37.62-37.62ZM757.15 892.52c-24.05 0-43.62-19.57-43.62-43.62v-58.97c0-1.66 1.34-3 3-3s3 1.34 3 3v58.97c0 20.75 16.88 37.62 37.62 37.62s37.62-16.88 37.62-37.62v-67.11c0-1.66 1.34-3 3-3s3 1.34 3 3v67.11c0 24.05-19.57 43.62-43.62 43.62ZM797.78 574.87c-1.66 0-3-1.34-3-3v-94.77c0-20.75-16.88-37.62-37.62-37.62s-37.62 16.88-37.62 37.62v83.17c0 1.66-1.34 3-3 3s-3-1.34-3-3v-83.17c0-24.05 19.57-43.62 43.62-43.62s43.62 19.57 43.62 43.62v94.77c0 1.66-1.34 3-3 3ZM869.49 892.52c-24.05 0-43.62-19.57-43.62-43.62v-140.47c0-1.66 1.34-3 3-3s3 1.34 3 3v140.47c0 20.75 16.88 37.62 37.62 37.62s37.62-16.88 37.62-37.62v-465.27c0-20.75-16.88-37.62-37.62-37.62s-37.62 16.88-37.62 37.62v123.99c0 1.66-1.34 3-3 3s-3-1.34-3-3v-123.99c0-24.05 19.57-43.62 43.62-43.62s43.62 19.57 43.62 43.62v465.27c0 24.05-19.57 43.62-43.62 43.62Z"/>
  </g>
  <g>
    <circle cx="171.13" cy="449.98" r="75.87" fill="#73a580"/>
    <path fill="#363634" d="m171.13,506.38c-31.1,0-56.4-25.3-56.4-56.4s25.3-56.4,56.4-56.4,56.4,25.3,56.4,56.4-25.3,56.4-56.4,56.4Zm0-106.8c-27.79,0-50.4,22.61-50.4,50.4s22.61,50.4,50.4,50.4,50.4-22.61,50.4-50.4-22.61-50.4-50.4-50.4Z"/>
    <path fill="#363634" d="m191.35,462.96c0-8.35-4.26-13.93-16.72-18.53l-.48-.18v-20.56c1.16.05,2.33.17,3.57.42l.94,4.76c1.06,5.53,3.76,6.82,6.34,6.82,1.97,0,3.93-1.08,4.57-3.68-.32-7.19-6.67-12.17-15.42-12.92v-8.38h-4.7v8.38c-10.59.91-17.24,7.86-17.24,16.59,0,9.32,5.74,14.3,15.76,18.09l1.16.43v21.17c-2.09-.05-4.01-.28-5.94-.72l-.88-5.09c-.86-4.82-2.88-6.24-5.71-6.24-2.15,0-3.87,1.11-4.86,3.54.23,7.87,6.97,12.89,17.39,13.14v9.26h4.7v-9.48c11-1.28,17.53-7.99,17.53-16.82Zm-29.55-29.85c0-5.23,3.11-8.18,7.65-9.11v18.52c-4.99-2.05-7.65-4.66-7.65-9.4Zm12.03,41.9v-18.98c5.41,2.36,7.7,4.81,7.7,9.82s-2.89,8.1-7.7,9.17Z"/>
  </g>
  <g>
    <path fill="#363634" d="M667.62 167.21c-.24 0-.49-.03-.74-.09-24.84-6.29-48.06-25.29-55.19-45.18-3.41-9.52-2.61-18.09 2.32-24.8 3.71-5.04 8.59-7.93 14.5-8.58 15.7-1.73 33.19 13.38 33.93 14.02 1.25 1.09 1.38 2.98.29 4.23-1.09 1.25-2.98 1.38-4.23.29-.16-.14-16.25-14.03-29.34-12.57-4.22.47-7.59 2.48-10.31 6.17-4.67 6.34-3.4 13.95-1.51 19.22 6.41 17.86 28.34 35.65 51.01 41.39 1.61.41 2.58 2.04 2.17 3.64-.34 1.36-1.57 2.26-2.91 2.26ZM837.33 167.21c-1.34 0-2.56-.91-2.91-2.26-.41-1.61.57-3.24 2.17-3.64 22.68-5.74 44.61-23.53 51.01-41.39 1.89-5.27 3.16-12.87-1.51-19.22-2.71-3.69-6.08-5.7-10.31-6.17-13.09-1.44-29.18 12.43-29.34 12.57-1.25 1.09-3.14.96-4.23-.29-1.09-1.25-.96-3.14.29-4.23.74-.64 18.21-15.74 33.93-14.02 5.91.65 10.79 3.53 14.5 8.58 4.93 6.7 5.73 15.28 2.32 24.8-7.14 19.9-30.35 38.9-55.19 45.18-.25.06-.49.09-.74.09ZM782.9 271.07h-61.29l4.57-57.49 3.47.92c.81.21 1.62.42 2.44.61 13.15 3.07 27.14 3.07 40.3.01.81-.19 1.65-.39 2.47-.61l3.47-.92 4.57 57.48Zm-54.8-6h48.3l-3.49-43.92c-13.56 3.01-27.85 3-41.32 0l-3.49 43.92Z"/>
    <path fill="#73a580" d="m660.46,89.47v39.16c0,42.61,29.04,78.44,68.41,88.78.85.22,1.69.44,2.55.63,6.69,1.56,13.67,2.38,20.82,2.38s14.14-.83,20.82-2.37c.86-.2,1.71-.41,2.56-.63,39.37-10.33,68.41-46.18,68.41-88.79v-39.16h-183.58Zm127.12,48.84l-12.7,12.38c-1.06,1.04-1.56,2.53-1.3,3.98l3.01,17.49c.62,3.68-3.23,6.48-6.54,4.75l-15.69-8.25c-1.31-.69-2.88-.69-4.19,0l-15.7,8.25c-3.3,1.73-7.15-1.07-6.53-4.75l3.01-17.49c.24-1.46-.24-2.95-1.3-3.98l-12.7-12.38c-2.67-2.6-1.2-7.14,2.5-7.67l17.55-2.55c1.48-.21,2.74-1.14,3.39-2.47l7.85-15.91c1.66-3.35,6.42-3.35,8.08,0l7.85,15.91c.65,1.32,1.92,2.25,3.39,2.47l17.55,2.55c3.69.53,5.17,5.08,2.5,7.67Z"/>
    <path fill="#363634" d="M772.15 180.43c-1.19 0-2.39-.29-3.49-.86l-15.7-8.26c-.44-.23-.96-.23-1.4 0l-15.69 8.26c-2.56 1.34-5.58 1.11-7.9-.57-2.33-1.69-3.47-4.5-2.99-7.34l3.01-17.49c.08-.48-.08-.98-.44-1.33l-12.7-12.38c-2.06-2.01-2.79-4.96-1.89-7.7.89-2.73 3.21-4.69 6.05-5.1l17.55-2.55c.49-.07.91-.38 1.13-.81l7.85-15.92c1.28-2.58 3.86-4.18 6.73-4.18s5.45 1.6 6.73 4.18l7.85 15.92c.22.44.64.75 1.13.82l17.55 2.55c2.84.41 5.16 2.37 6.05 5.1.89 2.74.17 5.68-1.89 7.69l-12.7 12.38c-.36.35-.52.85-.44 1.33l3.01 17.48c.48 2.84-.66 5.65-2.99 7.34-1.31.96-2.85 1.44-4.41 1.44Zm-19.89-15.3c1.2 0 2.39.29 3.49.86l15.7 8.26c.74.39 1.35.05 1.58-.12.23-.17.74-.64.6-1.48l-3.01-17.47c-.41-2.44.4-4.92 2.17-6.64l12.7-12.38c.6-.59.46-1.27.38-1.54-.09-.27-.38-.9-1.21-1.02l-17.55-2.55c-2.45-.36-4.56-1.89-5.65-4.11l-7.85-15.91c-.37-.75-1.07-.84-1.35-.84s-.98.08-1.35.84l-7.85 15.91c-1.08 2.21-3.2 3.75-5.65 4.1l-17.55 2.55c-.83.12-1.12.75-1.21 1.02-.09.27-.23.95.38 1.54l12.7 12.38c1.77 1.73 2.58 4.21 2.17 6.64l-3.01 17.49c-.14.83.37 1.31.6 1.47s.84.51 1.59.11l15.69-8.26c1.09-.57 2.29-.86 3.49-.86Zm22.63-14.45h0 0ZM818.08 276.14v34.86c0 4.45-3.61 8.06-8.07 8.06h-115.53c-4.45 0-8.06-3.61-8.06-8.06v-34.86c0-4.46 3.61-8.07 8.06-8.07h115.53c4.46 0 8.07 3.61 8.07 8.07ZM752.16 223.78c-13.3 0-24.84-3.06-33.85-6.69-19.5-7.85-31.29-19.68-31.78-20.17-1.16-1.18-1.15-3.08.03-4.24 1.18-1.16 3.08-1.15 4.24.03.17.18 11.6 11.57 29.96 18.91 24.47 9.78 49.1 8.12 73.19-4.95 1.46-.79 3.28-.25 4.07 1.21.79 1.46.25 3.28-1.21 4.07-16.12 8.75-31.28 11.85-44.66 11.85Z"/>
  </g>
  <path fill="#363634" d="M470.78 472.74c-1 0-1.97-.5-2.54-1.4l-60.22-95.63c-.88-1.4-.46-3.25.94-4.14 1.4-.88 3.25-.46 4.14.94l60.22 95.63c.88 1.4.46 3.25-.94 4.14-.5.31-1.05.46-1.6.46ZM670.96 549.48c-.08 0-.15 0-.23 0-1.65-.13-2.89-1.57-2.76-3.22.12-1.51.47-6.12 13.21-22.17.55-.7.49-1.42.41-1.8-.08-.37-.35-1.05-1.14-1.44l-80.41-39c-1.49-.72-2.11-2.52-1.39-4.01.72-1.49 2.52-2.11 4.01-1.39l80.41 39c2.23 1.08 3.83 3.09 4.38 5.5.55 2.42-.02 4.92-1.56 6.86-8.55 10.77-11.77 16.83-11.93 18.9-.12 1.57-1.44 2.77-2.99 2.77Z"/>
</svg>