<svg xmlns="http://www.w3.org/2000/svg" xml:space="preserve" id="business-growth" x="0" y="0" enable-background="new 0 0 300 225" version="1.1" viewBox="0 0 300 225">
  <g>
    <g id="XMLID_3946_">
      <path id="XMLID_11_" fill="none" stroke="#000" stroke-miterlimit="10" stroke-width=".316" d="M206.85,199.17c33.65-2.37,60.93-28.67,63.81-62.28c3.07-35.93-23.54-57.95-26.37-61.22
			c-7.26-8.38-6.51-29.5-23.89-41.28c-24.78-16.79-40.35,4.65-54.77,2.03c-12.49-2.27-20.2-19.43-44.25-16.65
			C87.7,23.67,95.67,41.81,85.45,47.14c-6.44,3.36-25.12-0.58-34.63,14.76c-15.6,25.16,1.76,38.6-7.84,53.22
			c-4.14,6.31-13.69,10.11-14.71,27.94C28.27,143.06-3.72,214,206.85,199.17z"></path>
    </g>
    <polygon points="71.35 201.62 132.36 124.74 204.41 97.99 246.94 55.18 241.39 51.1 258.93 41.62 257.14 61.41 251.39 57.74 223.3 115.51 154.04 147.9 127.35 201.65"></polygon>
    <g>
      <g>
        <path fill="#fff" stroke="#000" stroke-linecap="round" stroke-linejoin="round" stroke-miterlimit="10" stroke-width=".316" d="M163.15,48.76c0,0,1.84-3.94-1.18-5.69c0,0-2-0.95-2.19,0.54c-0.19,1.48-0.28,2.05-0.28,2.05
				s-0.49,2.7-2.04,4.35c-1.55,1.65-1.94,5.59-1.94,5.59s-0.75,1.35-2.49,3.34c-1,1.15-0.92,2.89,0.2,3.94l3.29,3.1
				c1.07,1.01,2.74,1.04,3.84,0.07l0,0c0,0,8.92-4.1,16.39-10.13c0,0,2.97-1.8,2.2-3.29c-0.61-1.17-1.95-1.03-1.95-1.03
				s1.92-0.96,1.25-2.55c0,0-0.61-1.51-2.31-1.04c0,0,2.68-1.39,1.39-3.23s-2.96-0.16-2.96-0.16s0.77-1.13-0.29-2.31
				c-1.06-1.18-2.34-0.3-2.82,0.2C170.78,42.99,165,48.17,163.15,48.76z"></path>
        <line x1="174.36" x2="168.59" y1="44.6" y2="49.2" fill="#fff" stroke="#000" stroke-linecap="round" stroke-linejoin="round" stroke-miterlimit="10" stroke-width=".316"></line>
        <line x1="175.93" x2="170.52" y1="47.99" y2="51.82" fill="#fff" stroke="#000" stroke-linecap="round" stroke-linejoin="round" stroke-miterlimit="10" stroke-width=".316"></line>
        <line x1="176.99" x2="171.31" y1="51.59" y2="55.56" fill="#fff" stroke="#000" stroke-linecap="round" stroke-linejoin="round" stroke-miterlimit="10" stroke-width=".316"></line>
        <path fill="#fff" stroke="#000" stroke-linecap="round" stroke-linejoin="round" stroke-miterlimit="10" stroke-width=".316" d="M163.15,48.76c0,0,3.09,3.06,0,7.07"></path>
      </g>
      <path d="M115.59 25.64c0 0-.17 1.43-2.1 1.43 0 0 1.2-1.43.72-3.9 0 0-.5 2.09-3.95 2.09s-13.79 0-14.23 7.34c0 0 .04 3.54.57 5.58 1.57 6.03 4.96 8.41 4.96 8.41l4.41-3.35-3.7-6.14c0 0 .48-6.48 6.33-5.73C116.08 32.34 115.59 25.64 115.59 25.64zM96.85 49.4c0 0-.25 26.99 12.83 35.52 0 0 11.95-8.05 5.54-35.11l-9.41-1.77L96.85 49.4z"></path>
      <polygon fill="#fff" stroke="#000" stroke-miterlimit="10" stroke-width=".316" points="101.37 51.71 101.95 41.48 111.12 42.89 111.03 45.33 110.93 51.52 107.15 53.3"></polygon>
      <g>
        <path fill="#fff" stroke="#000" stroke-linecap="round" stroke-linejoin="round" stroke-miterlimit="10" stroke-width=".316" d="M98.59,192.53l-16.6-1.22l2.18-29.6c0.34-4.58,4.33-8.03,8.91-7.69h0c4.58,0.34,8.03,4.33,7.69,8.91
				L98.59,192.53z"></path>
        <g>
          <path fill="#73a580" d="M98.9,190.26c-0.83-2.83-3.35-4.83-6.3-5l-4.04-0.23c-0.12-0.01-0.24-0.02-0.36-0.03
					c-2.69-0.15-5.24,1.21-6.72,3.46l-6.2,9.46h0c0.97,2.9,5.53,2.62,12.88,3.8c7.35,1.17,12.88-3.06,12.88-3.06
					C100.62,196.59,99.74,193.12,98.9,190.26z"></path>
          <g>
            <path d="M75.28,197.93c0,0,1.15,1.83,12.09,2.21c7.02,0.24,11.43-0.74,13.68-1.47l0.44,3.11c0.22,1.55-0.88,2.99-2.44,3.16
						c-4.44,0.5-13.43,1.16-22.36-0.33c-1.17-0.19-2.09-1.1-2.28-2.27C74.2,201.12,74.25,199.49,75.28,197.93z"></path>
          </g>
          <g>
            <path d="M84.4,191.18c-0.22,0-0.43-0.13-0.53-0.34c-0.13-0.29,0-0.64,0.29-0.77c4.79-2.16,9.1-0.08,9.29,0.01
						c0.29,0.14,0.41,0.49,0.26,0.78c-0.14,0.29-0.49,0.41-0.78,0.26c-0.05-0.02-4.02-1.92-8.29,0.01
						C84.56,191.16,84.48,191.18,84.4,191.18z"></path>
          </g>
          <g>
            <path d="M84.4,195.3c-0.22,0-0.43-0.13-0.53-0.34c-0.13-0.29,0-0.64,0.29-0.77c4.79-2.16,9.1-0.08,9.29,0.01
						c0.29,0.14,0.41,0.49,0.26,0.78c-0.14,0.29-0.49,0.41-0.78,0.26c-0.05-0.02-4.02-1.92-8.29,0.01
						C84.56,195.29,84.48,195.3,84.4,195.3z"></path>
          </g>
        </g>
        <path fill="#fff" stroke="#000" stroke-linecap="round" stroke-linejoin="round" stroke-miterlimit="10" stroke-width=".316" d="M114.8,96.4l-26.89-2.84l-8.98,88.47c0,0,11.18,3.49,22.58,1.07C101.52,183.09,115.15,100.88,114.8,96.4z"></path>
      </g>
      <g>
        <path fill="#fff" stroke="#000" stroke-linecap="round" stroke-linejoin="round" stroke-miterlimit="10" stroke-width=".316" d="M115.7,192.53l16.6-1.22l-2.18-29.6c-0.34-4.58-4.33-8.03-8.91-7.69h0c-4.58,0.34-8.03,4.33-7.69,8.91
				L115.7,192.53z"></path>
        <g>
          <path fill="#73a580" d="M115.39,190.26c0.83-2.83,3.35-4.83,6.3-5l4.04-0.23c0.12-0.01,0.24-0.02,0.36-0.03
					c2.69-0.15,5.24,1.21,6.72,3.46l6.2,9.46h0c-0.97,2.9-5.53,2.62-12.88,3.8c-7.35,1.17-12.88-3.06-12.88-3.06
					C113.67,196.59,114.56,193.12,115.39,190.26z"></path>
          <g>
            <path d="M139.01,197.93c0,0-1.15,1.83-12.09,2.21c-7.02,0.24-11.43-0.74-13.68-1.47l-0.44,3.11c-0.22,1.55,0.88,2.99,2.44,3.16
						c4.44,0.5,13.43,1.16,22.36-0.33c1.17-0.19,2.09-1.1,2.28-2.27C140.09,201.12,140.04,199.49,139.01,197.93z"></path>
          </g>
          <g>
            <path d="M129.89,191.18c0.22,0,0.43-0.13,0.53-0.34c0.13-0.29,0-0.64-0.29-0.77c-4.79-2.16-9.1-0.08-9.29,0.01
						c-0.29,0.14-0.41,0.49-0.26,0.78c0.14,0.29,0.49,0.41,0.78,0.26c0.05-0.02,4.02-1.92,8.29,0.01
						C129.73,191.16,129.81,191.18,129.89,191.18z"></path>
          </g>
          <g>
            <path d="M129.89,195.3c0.22,0,0.43-0.13,0.53-0.34c0.13-0.29,0-0.64-0.29-0.77c-4.79-2.16-9.1-0.08-9.29,0.01
						c-0.29,0.14-0.41,0.49-0.26,0.78c0.14,0.29,0.49,0.41,0.78,0.26c0.05-0.02,4.02-1.92,8.29,0.01
						C129.73,195.29,129.81,195.3,129.89,195.3z"></path>
          </g>
        </g>
        <path fill="#fff" stroke="#000" stroke-linecap="round" stroke-linejoin="round" stroke-miterlimit="10" stroke-width=".316" d="M126.13,93.55L99.49,96.4c-0.34,4.49,13.29,86.69,13.29,86.69c11.4,2.42,22.58-1.07,22.58-1.07L126.13,93.55
				z"></path>
      </g>
      <path fill="#fff" d="M108.28,52.09l-1.13,0.28l-1.17-0.17l-1.22,25.13c1.35,3.85,5.9,7.06,5.9,7.06s2.22-4.19,2.5-5.6
			L108.28,52.09z"></path>
      <polygon points="98.01 49.22 104.16 54.68 107.15 52.37 101.48 48.2"></polygon>
      <polygon points="113.76 49.55 109.76 54.21 107.15 52.37 110.89 49.01"></polygon>
      <path fill="#73a580" d="M109.68,82.33c0,0,9.19-14.14,4.08-32.77c0,0,5.72-0.31,13.19,1.66c1.73,0.46,2.94,2.01,2.94,3.79v61.42
			c-0.04,1.01-0.86,1.82-1.87,1.85l-42.27,0.78c-1,0.03-1.85-0.72-1.96-1.71l-2.86-61.94c-0.24-1.85,0.99-3.57,2.82-3.93
			c4.02-0.81,10.66-2.17,14.27-2.26C98.01,49.22,99.79,73.55,109.68,82.33z"></path>
      <g>
        <path fill="#fff" stroke="#000" stroke-linecap="round" stroke-linejoin="round" stroke-miterlimit="10" stroke-width=".316" d="M96.63,121.12c-0.02,0-0.03-0.01-0.05-0.01c0.25,0.33,0.55,0.66,0.91,0.91l1.79,1.27
				c-1.32,1.55-5.15,5.36-11.86,6.68c-2.03-1.65-5.05-4.27-7.08-6.89c-1.88-1.38-2.78-4.22-0.75-7.17c2.03-2.95,4.76-1.97,6.09-1.08
				c1.17,0.57,2.24,1.33,3.54,1.15c1.31-0.19,3.44-0.13,4.85,0.38c1.42,0.51,3.42,0.8,4.37,0.75c0.96-0.04,1.92-0.46,2.47-0.12
				c0.55,0.34,0.83,1.88-0.3,3.05C99.47,121.23,97.6,121.24,96.63,121.12z"></path>
      </g>
      <path fill="none" stroke="#000" stroke-linecap="round" stroke-linejoin="round" stroke-miterlimit="10" stroke-width=".316" d="M85.41,130.28c1.58-0.22,0.7-0.05,2-0.31c6.71-1.32,10.54-5.13,11.86-6.68c0.35-0.42,0.53-0.67,0.53-0.67"></path>
      <path fill="#73a580" d="M59.93,65.82c-10.06,8.39-7.92,20.61-3.07,27.75l21.17,30.37l11.87-9.26L75.18,88.05
			c-2.09-3.82-2.42-5.9,1.23-7.57l12.89-7.51l-2.69-21.92C86.61,51.04,77.65,51.04,59.93,65.82z"></path>
      <polyline fill="none" stroke="#000" stroke-linecap="round" stroke-linejoin="round" stroke-miterlimit="10" stroke-width=".316" points="83.14 102.22 89.9 114.69 78.04 123.95"></polyline>
      <path fill="#fff" stroke="#000" stroke-miterlimit="10" stroke-width=".316" d="M99.93,37.97c1.6,5.3,7.4,9.07,10.7,7.53c4.73-2.21,4.06-6,3.4-11.5c-0.91-7.59-5.73-8.73-9.21-7.68
			S98.32,32.67,99.93,37.97z"></path>
      <path d="M111.03,26.12c-6.46-2.01-11.55,2.24-11.55,2.24l-2.88,8.63l6.75,1.89c0,0-2.14-7.25,2.48-7.25s7.82-1.24,7.82-1.24
			L111.03,26.12z"></path>
      <g>
        <ellipse cx="100.88" cy="38.19" fill="#fff" rx="3.13" ry="3.91" transform="rotate(-5.674 100.925 38.2)"></ellipse>
        <g>
          <path d="M99.87,40.24c0.12,0,0.23-0.08,0.26-0.2c0.1-0.35,0.27-0.58,0.51-0.71c0.49-0.24,1.13,0.02,1.14,0.02
					c0.09,0.04,0.18,0.02,0.26-0.03c0.08-0.05,0.12-0.14,0.12-0.24c-0.09-2.24-1.87-2.9-1.94-2.92c-0.14-0.05-0.3,0.02-0.35,0.17
					c-0.05,0.14,0.02,0.3,0.17,0.35l0,0c0.06,0.02,1.3,0.49,1.54,2.05c-0.32-0.06-0.76-0.09-1.17,0.11
					c-0.39,0.19-0.66,0.55-0.8,1.06c-0.04,0.15,0.05,0.3,0.19,0.34C99.82,40.23,99.85,40.24,99.87,40.24z"></path>
        </g>
      </g>
      <path fill="#73a580" d="M126.29,51.04c0,0,4.36,0.48,10.15,9.33c1.8,2.76,5.96,2.7,8.81,0.95l9.29-6.38l8.82,10.98l-11.83,9.84
			c-8.26,8.29-21.53,8.77-30.37,1.11l-6.58-5.7L126.29,51.04"></path>
    </g>
    <path d="M268.77,26.24l-1.31,5.99c-0.07,0.31,0.07,0.64,0.35,0.8l5.29,3.1c0.62,0.36,0.41,1.31-0.3,1.38l-6.1,0.6
		c-0.32,0.03-0.58,0.27-0.65,0.58l-1.31,5.99c-0.15,0.7-1.12,0.8-1.4,0.14l-2.46-5.62c-0.13-0.29-0.43-0.47-0.75-0.44l-6.1,0.6
		c-0.71,0.07-1.1-0.81-0.57-1.29l4.58-4.07c0.24-0.21,0.32-0.56,0.19-0.85l-2.46-5.62c-0.29-0.66,0.43-1.3,1.05-0.94l5.29,3.1
		c0.28,0.16,0.63,0.13,0.87-0.09l4.58-4.07C268.09,25.05,268.93,25.54,268.77,26.24z"></path>
  </g>
</svg>
