<svg xmlns="http://www.w3.org/2000/svg" xml:space="preserve" style="enable-background:new 0 0 1173.5 1039.3" viewBox="0 0 1173.5 1039.3" id="businessman-calculating-marketing-chart">
  <g id="Layer_2">
    <g>
      <g>
        <path d="M631.8,119.2c-255.3,0-462.3,206-462.3,460c0,254.1,207,460,462.3,460c255.3,0,462.3-206,462.3-460
				C1094.1,325.2,887.1,119.2,631.8,119.2z M631.8,854.1c-152.6,0-276.2-123.1-276.2-274.9c0-151.8,123.7-274.9,276.2-274.9
				c152.6,0,276.2,123.1,276.2,274.9C908,731,784.3,854.1,631.8,854.1z" style="fill:#73a580"></path>
        <path d="M631.8,119.2c-2.9,0-5.7,0.2-8.5,0.2v185.2c2.8-0.1,5.7-0.2,8.5-0.2c152.6,0,276.2,123.1,276.2,274.9
				c0,50.8-13.9,98.4-38.1,139.2l161.1,92.6c40-68.1,63-147.2,63-231.8C1094.1,325.2,887.1,119.2,631.8,119.2z" style="fill:#fffbf2"></path>
        <path d="M261.1,330.4l142,94.6c48.1-70.5,128.3-117.5,219.6-120.4V119.4c-155.8,3-292.8,82.5-374.3,202.5
				L261.1,330.4z" style="fill:#1d1c1c"></path>
      </g>
      <g>
        <path d="M142.1,4.5h156.4c43.2,0,78.2,34.8,78.2,77.8c0,41.4-32.6,75.2-73.6,77.6v64.3l-64.4-64.1h-96.6
				c-43.2,0-78.2-34.8-78.2-77.8C63.9,39.3,98.9,4.5,142.1,4.5z" style="fill:none;stroke:#1d1c1c;stroke-width:8.9016"></path>
      </g>
      <g>
        <path d="M82.7,491.9h156.4c43.2,0,78.2,34.8,78.2,77.8c0,41.4-32.6,75.2-73.6,77.6v64.3l-64.4-64.1H82.7
				c-43.2,0-78.2-34.8-78.2-77.8C4.5,526.7,39.5,491.9,82.7,491.9z" style="fill:none;stroke:#1d1c1c;stroke-width:8.9016"></path>
      </g>
      <g>
        <path d="M1090.9,239.2H934.5c-43.2,0-78.2,34.8-78.2,77.8c0,41.4,32.6,75.2,73.6,77.6v64.3l64.4-64.1h96.6
				c43.2,0,78.2-34.8,78.2-77.8C1169.1,274,1134.1,239.2,1090.9,239.2z" style="fill:none;stroke:#1d1c1c;stroke-width:8.9016"></path>
      </g>
      <g>
        <line x1="125.2" x2="306.3" y1="59.1" y2="59.1" style="fill:none;stroke:#1d1c1c;stroke-width:8.9016"></line>
        <line x1="125.2" x2="306.3" y1="100.4" y2="100.4" style="fill:none;stroke:#1d1c1c;stroke-width:8.9016"></line>
      </g>
      <g>
        <path d="M632.1,1038.5c124.8,0,238.1-49.4,321-129.7l-64-177.6l-104.3,11.5l-25.4-33.1
				c-28.7-37.4-79.4-50.5-122.7-31.7l-181,71c-31.1,12.2-55.3,37.2-66.5,68.5l-45.4,120.2C422.8,1000.8,523,1038.5,632.1,1038.5z" style="fill:#1d1c1c"></path>
        <path d="M784.2,743l-16.5-65.5c-7.4-29.5-2.9-60.8,12.5-87.1l44.2-75.2c3.9-6.7,11.5-10.3,19.2-9.2l0,0
				c11.8,1.7,19.2,13.6,15.3,24.9l-19.7,57.7l84.5,6.3l86.6-54.9c8-5.1,18.5-3.6,24.9,3.4l0,0c3.9,4.3,3.4,11-1.1,14.8L883.9,682
				l4,49.4" style="fill:#fff;stroke:#1d1c1c;stroke-width:8.9016;stroke-linecap:round;stroke-linejoin:round;stroke-miterlimit:10"></path>
        <path d="M967.1,588.8l23.8-70.2c2.2-6.5-3.9-12.7-10.5-10.7h0c-8.4,2.6-15.3,8.5-19,16.4l-33.3,65" style="fill:#fff;stroke:#1d1c1c;stroke-width:8.9016;stroke-linecap:round;stroke-linejoin:round;stroke-miterlimit:10"></path>
        <path d="M847.5,649l49.5-39.8l18.1-67.6c2.5-9.2,9.7-16.5,18.9-19.1l0,0c6-1.7,11.7,3.2,11,9.4l-10.2,85.2" style="fill:#fff;stroke:#1d1c1c;stroke-width:8.9016;stroke-linecap:round;stroke-linejoin:round;stroke-miterlimit:10"></path>
        <g>
          <path d="M581,611.1l-34.4,13.4c-39.6,15.4-84.6-4.3-100-43.7l-5.3-13.6c-19.3-49.3,5.4-105.4,55-124.6l9.1,12.1
					c31.1-12.1,66.4,3.4,78.5,34.3l24,61.3C617.3,574.3,605.2,601.7,581,611.1z" style="fill:#1d1c1c"></path>
          <ellipse cx="533.2" cy="540.8" rx="86.7" ry="81" style="fill:#1d1c1c" transform="rotate(-4.856 533.188 540.757)scale(.99999)"></ellipse>
          <path d="M623.9 671.3c-26.1-3.5-49.9-19.9-61.5-45.7L551.8 602l63.1-28.1L623.9 671.3zM512.5 554.4c-7.9-26.5.8-56.3 22.7-71.6h0c13.6-9.5 29.7-11.6 44.3-7.1-7.5 1.4-28.3 6.6-31.1 20.9C544.9 514 547.3 546.4 512.5 554.4z" style="fill:#1d1c1c"></path>
          <path d="M621.1 465.1c7.8 19.9-2.1 42.2-22 50-20 7.7-42.4-2.1-50.2-21.9-7.8-19.9 2.1-42.2 22-50C590.8 435.4 613.3 445.3 621.1 465.1zM486.2 459.3c-37.1 20.1-54.8 64.4-40.6 104.8 11.1 2.4 23.2 1.7 34.7-2.8 30-11.7 45.4-44.2 34.2-72.6C509.2 475.2 498.9 465 486.2 459.3z" style="fill:#1d1c1c"></path>
          <path d="M548.4,463.8c7.8,19.9-2.1,42.2-22,50c-20,7.7-42.4-2.1-50.2-21.9c-7.8-19.9,2.1-42.2,22-50
					C518.2,434.1,540.6,443.9,548.4,463.8z" style="fill:#1d1c1c"></path>
          <path d="M591.3,449.2c8,20.4-2.1,43.4-22.7,51.4c-20.5,8-43.6-2.1-51.6-22.6c-8-20.4,2.1-43.4,22.7-51.4
					C560.1,418.7,583.3,428.8,591.3,449.2z" style="fill:#1d1c1c"></path>
          <path d="M435.1,492.9c0,0,14.4-2.5,22,7.6" style="fill:none;stroke:#1d1c1c;stroke-width:8.9016;stroke-linecap:round;stroke-linejoin:round;stroke-miterlimit:10"></path>
          <path d="M441.9,482.6c0,0,3.9,14,16.4,16.5" style="fill:none;stroke:#1d1c1c;stroke-width:8.9016;stroke-linecap:round;stroke-linejoin:round;stroke-miterlimit:10"></path>
          <path d="M640.2,679.5l-15.3,2.7l-3.9-42.4c5-1.5,9.9-3.7,14.5-6.6c28.1-17.7,36.5-54.8,18.7-82.7L641.7,531
					c5.1-4.1,6.6-11.4,3-17.1l0,0c-3.6-5.7-10.9-7.7-16.9-4.8l-3.6-5.6c-17.8-28-55-36.3-83.1-18.6l0,0
					c-23.7,14.9-33.4,43.6-25.1,69c-10.6,4.2-17.1,15.4-14.9,26.9c1.9,10.1,9.9,17.5,19.4,19.2l10.9,118.4l-41.4,20.8
					c9.4,20.8,51.8,38.9,80.1,47.9c45,14.4,90.1-0.7,100.7-33.7C679.3,727.8,668.7,697.9,640.2,679.5z" style="fill:#fff;stroke:#1d1c1c;stroke-width:8.9016;stroke-linecap:round;stroke-linejoin:round;stroke-miterlimit:10"></path>
          <path d="M517 571.9c0 0 9.8.6 13 10.3M632.3 544.5c0 0-7.1 9.1-19.9.3" style="fill:none;stroke:#1d1c1c;stroke-width:8.9016;stroke-linecap:round;stroke-linejoin:round;stroke-miterlimit:10"></path>
          <path d="M614.2 516.2c1.3 3.1.3 6.5-2.2 7.6-2.6 1.1-5.7-.5-7.1-3.6-1.3-3.1-.3-6.5 2.2-7.6C609.7 511.5 612.9 513.1 614.2 516.2zM600.3 499.6c1.6 1.3-.1 6.1-3.8 10.5-3.7 4.5-8.1 7-9.7 5.7-1.6-1.3.1-6.1 3.8-10.5C594.3 500.8 598.6 498.3 600.3 499.6zM524.1 496.2c-24.1 10.3-37.6 36.7-31.2 62.6 6.7 2.1 14.2 2.4 21.6.2 19.3-5.5 30.6-24.7 25.4-43C537.4 507.3 531.6 500.4 524.1 496.2z" style="fill:#1d1c1c"></path>
          <path d="M620.7,639.4c-25,7.1-52.7-2.7-67.3-25.6" style="fill:none;stroke:#1d1c1c;stroke-width:8.9016;stroke-linecap:round;stroke-linejoin:round;stroke-miterlimit:10"></path>
        </g>
        <line x1="787.1" x2="811" y1="749.7" y2="1006.5" style="fill:none;stroke:#fff;stroke-width:8.9016;stroke-linecap:round;stroke-linejoin:round;stroke-miterlimit:10"></line>
        <line x1="518.1" x2="502.4" y1="902" y2="1022.3" style="fill:none;stroke:#fff;stroke-width:8.9016;stroke-linecap:round;stroke-linejoin:round;stroke-miterlimit:10"></line>
      </g>
      <g>
        <path d="M97.6,593.7c-38.1-15.8-46.2-67.6-18.1-115.6c28.1-48,81.7-74.2,119.8-58.4c38.1,15.8,46.2,67.6,18.1,115.6
				C189.3,583.4,135.7,609.5,97.6,593.7z" style="fill:#fffbf2"></path>
        <g>
          <g>
            <path d="M212.2,427.3l22.5,17.8c26.7,21.2,29.8,66,5.2,108.1c-28.1,48-81.7,74.2-119.8,58.3l-22.5-17.8
						c38.1,15.8,91.7-10.3,119.8-58.4C242,493.3,238.9,448.4,212.2,427.3z" style="fill:#1d1c1c"></path>
          </g>
          <path d="M111.7,569.5c-27.5-11.4-33.3-48.8-13-83.5c20.3-34.7,59.1-53.6,86.6-42.2c27.5,11.4,33.4,48.8,13,83.5
					C178,562.1,139.2,581,111.7,569.5z" style="fill:none;stroke:#1d1c1c;stroke-width:8.9016;stroke-linecap:round;stroke-linejoin:round;stroke-miterlimit:10"></path>
        </g>
      </g>
      <g>
        <path d="M938.1,274.4l93.5,40.5c4-11.4,13.9-27.7,35.6-43.6c26.8-19.6,70.9-23.8,92.7-93.3
				c25.5-81.1-58.4-126.9-66.7-130.5l0,0c0,0-0.1,0-0.2-0.1c-0.1-0.1-0.2-0.1-0.2-0.1l0,0c-9.9-4.3-99.2-33.5-141.4,40.3
				c-36.2,63.2-9.3,98.2-5.4,131.1C949,245.4,943.8,263.8,938.1,274.4z" style="fill:#fff;stroke:#1d1c1c;stroke-width:8.9016;stroke-linecap:round;stroke-linejoin:round;stroke-miterlimit:10"></path>
        <path d="M994.7,362.5l-66.5-28.8c-10.2-4.4-14.9-16.3-10.5-26.5l15.1-34.5l103.6,44.9l-15.1,34.5
				C1016.9,362.3,1005,367,994.7,362.5z"></path>
        <path d="M977.8,374l-46.4-20.1c-7.1-3.1-10.4-11.4-7.3-18.5l10.5-24.1l72.3,31.3l-10.5,24.1C993.2,373.9,984.9,377.1,977.8,374z"></path>
        <g>
          <line x1="975.8" x2="1009.6" y1="273.2" y2="195.9" style="fill:none;stroke:#000;stroke-width:8.9016"></line>
          <line x1="1006.9" x2="1040.7" y1="286.7" y2="209.3" style="fill:none;stroke:#000;stroke-width:8.9016"></line>
          <line x1="986.3" x2="1064" y1="185.8" y2="219.4" style="fill:none;stroke:#000;stroke-width:8.9016"></line>
        </g>
      </g>
    </g>
  </g>
</svg>
