<svg xmlns="http://www.w3.org/2000/svg" xml:space="preserve" id="financial-planning" x="0" y="0" style="enable-background:new 0 0 3000 3000" version="1.1" viewBox="0 0 3000 3000">
  <g>
    <path d="M2599.71,1314.7l-243.99,336.8c-30.17,41.65-38.3,95.33-21.8,144.05l83.32,246
		c32.4,95.66-31.6,196.86-131.92,208.59l-350.72,40.99c-62.6,7.32-114.94,50.97-133.37,111.24l-39.81,130.16
		c-39.2,128.16-209.77,153.07-283.98,41.47l-452.75-680.86c-25.2-37.9-65.45-63.15-110.54-69.36l-451.49-62.14
		c-129.01-17.76-182.93-174.75-92.05-268.03l183.37-188.21c71.13-73.01,56-193.18-31.01-246.27l0,0
		c-111.59-68.1-97.64-234.34,23.74-282.89l148.58-59.42c60.54-24.21,100.11-82.98,99.79-148.18l-0.24-48.47
		c-0.71-142.88,172.95-213.89,272.55-111.44l189.25,194.66c51.72,53.2,133.4,63.47,196.68,24.74l407.41-249.35
		c110.49-67.62,251.09,18.43,241.13,147.58l-28.3,367.34c-7.14,92.67,66.52,171.62,159.46,170.93l236.95-1.78
		C2600.11,1061.87,2676.06,1209.31,2599.71,1314.7z" style="fill:#73a580"></path>
    <g>
      <g>
        <g>
          <path d="M1830.54,1999.22c17.41-42.24,37.72-80.58,61.47-115.85c38.85-57.66,80.65-88.37,124.3-91.32
					c1.01-0.07,2.02-0.12,3.03-0.16c13.52-0.53,24.26,2.1,31.91,7.82c15.68,11.74,16.76,36.31,8.73,53.28
					c-9.08,19.21-27.6,33.15-44.51,44.24c-20.85,13.68-43.2,25.97-64.81,37.86c-27.74,15.27-56.44,31.05-82.63,50.08
					c-6.33,4.6-12.38,9.38-18.17,14.28c-52.84,71.69-116.35,174.71-138,278.89c-4.62,22.25-6.56,41.01-7.11,56.11
					c17.24-39.49,58.86-97.66,159.17-151.15c32.36-28.92,65.64-53.46,100.55-74.2c59.78-35.49,110.7-45.36,151.42-29.35
					c0.94,0.37,1.88,0.75,2.8,1.15c12.45,5.31,21.02,12.28,25.49,20.72c9.15,17.32-0.39,39.99-14.91,51.89
					c-16.43,13.48-39.13,18.15-59.16,20.94c-24.69,3.44-50.16,4.98-74.78,6.49c-31.61,1.93-64.3,3.91-96.11,9.91
					c-9.9,1.87-19.5,4.18-28.79,6.87c-0.01,0-0.02,0.01-0.02,0.01c4.6,0.85,9.91,2.08,16.02,3.84c26.69,1.15,52.13,4.41,76.74,9.91
					c46.37,10.37,76.31,29.32,89.06,56.37c0.29,0.62,0.58,1.25,0.85,1.89c3.7,8.48,4.7,15.96,2.97,22.25
					c-3.57,12.9-18.93,19.71-31.73,18.82c-14.49-1-27.97-9.31-39.24-17.31c-13.89-9.86-27.28-21.03-40.23-31.82
					c-16.62-13.86-33.81-28.19-52.44-40.12c-1.78-1.14-3.57-2.24-5.36-3.32c-25.69-8.06-36.62-6.35-37.15-6.26
					c-1.42,0.32-2.82,0.21-4.12-0.2c-59.76,36.25-92.71,72.84-110.65,100.22c-26.24,40.06-26.85,69.44-26.86,69.82
					c0,0.15-0.04,0.28-0.04,0.42c-0.02,0.28-0.04,0.55-0.09,0.83c-0.04,0.25-0.1,0.49-0.16,0.73c-0.07,0.25-0.14,0.49-0.23,0.73
					c-0.09,0.24-0.19,0.48-0.31,0.71c-0.11,0.22-0.23,0.44-0.36,0.65c-0.13,0.22-0.27,0.42-0.42,0.62c-0.15,0.2-0.32,0.4-0.49,0.59
					c-0.17,0.18-0.34,0.35-0.52,0.51c-0.19,0.17-0.39,0.34-0.6,0.49c-0.21,0.15-0.42,0.29-0.64,0.42c-0.21,0.13-0.42,0.24-0.65,0.35
					c-0.25,0.12-0.52,0.22-0.79,0.32c-0.13,0.05-0.25,0.12-0.39,0.16c-0.08,0.02-0.15,0.01-0.23,0.03
					c-0.51,0.13-1.04,0.21-1.58,0.24c-0.11,0.01-0.22,0.03-0.33,0.03c-0.02,0-0.04,0.01-0.06,0.01c-0.58,0-1.15-0.09-1.69-0.21
					c-0.07-0.02-0.14-0.01-0.21-0.02c0,0,0,0-0.01,0s0,0-0.01,0c-0.59-0.15-1.14-0.38-1.67-0.66c-0.12-0.06-0.23-0.12-0.35-0.19
					c-0.51-0.3-1-0.64-1.43-1.04c-0.06-0.05-0.11-0.12-0.16-0.17c-0.39-0.38-0.73-0.81-1.03-1.26c-0.07-0.1-0.14-0.2-0.21-0.31
					c-0.31-0.52-0.56-1.08-0.74-1.68c-0.01-0.05-0.04-0.08-0.06-0.13c-0.45-1.54-10.78-38.41,3.25-107.28
					C1717.12,2173.68,1777.84,2072.16,1830.54,1999.22z"></path>
          <circle cx="2008.79" cy="1839.69" r="16.67" style="fill:#fff"></circle>
          <circle cx="2078.36" cy="2128.34" r="16.67" style="fill:#fff"></circle>
          <circle cx="2018.61" cy="2273.06" r="13.89" style="fill:#fff"></circle>
        </g>
        <g>
          <path d="M933.4,2062.49c36.6,55.08,67.21,114.13,90.1,177.07c11.61,31.92,21.32,66.97,11.24,99.41
					c-11.01,35.42-44.06,60.36-79.25,72.1c-85.96,28.68-182.97-11.2-246.45-75.88c-63.48-64.68-100.23-150.28-134.79-234.06
					c-27.21-65.95-54.31-132.97-95.1-191.96c-17.49-25.29-111.1-118.71-79.26-151.96c43.32-46.92,193.66-27.6,301.76,58.02
					C790.69,1885.76,870.81,1968.31,933.4,2062.49z"></path>
          <path d="M523.5,1819.73c2.97-3.52,8.23-3.95,11.74-0.98c151.18,127.81,259.46,281.15,323.68,387.28
					c0.35,0.58,0.69,1.15,1.04,1.73c-11.8-70.72-47.77-217.34-150.98-313.12c-3.19-2.96-3.38-7.94-0.42-11.13
					c2.96-3.19,7.94-3.37,11.13-0.42c75.45,70.02,115.3,165.43,135.44,233.14c18.43,61.95,24.1,111.51,25.51,126.68
					c55.02,96.05,82.29,164.32,82.6,165.09c1.69,4.28-0.4,9.12-4.68,10.82c-0.04,0.01-0.08,0.03-0.12,0.04
					c-4.25,1.61-9.02-0.49-10.7-4.72c-0.59-1.48-27.12-67.39-80.91-161.32c-0.32-0.44-0.59-0.91-0.81-1.41
					c-19.83-34.55-43.33-72.84-70.56-113.09c-20.94,4.56-85.78,8.03-165.14-91.93c-2.71-3.41-2.14-8.36,1.27-11.06
					c3.41-2.71,8.36-2.14,11.06,1.27c66.2,83.38,120.48,89.25,142.89,87.2c-66.08-95.61-152.8-200.8-261.05-292.31
					C520.97,1828.5,520.53,1823.25,523.5,1819.73z" style="fill:#fff"></path>
        </g>
        <g>
          <g>
            <path d="M1581.79,467.67c-36.92,7.93-70.3,24.54-98.14,47.42l-66.13-55.12l-49.24,51.68l61.52,66.98
						c-16.9,29.28-27.53,62.46-30.25,97.57l-96.6,14.73l6.05,71.1l99.35-1.8c9.7,32.92,26.43,62.57,48.32,87.4l-52.86,81.89
						l57.25,42.61l61.79-72.4c29.19,15.38,61.93,24.67,96.39,26.35l18.33,94.29l70.81-8.92l-5.69-96.47
						c25.97-8.44,49.8-21.3,70.7-37.61l72.19,62.51l50.18-50.73l-66.31-75c16.96-28.09,28.09-59.94,31.86-93.76l84.14-13.29
						l-6.41-71.06l-83.25,1.95c-8.81-35.32-25.6-67.19-48.23-93.78l53.4-79.39l-56.44-43.68l-62.03,69.97
						c-23.13-12.73-48.58-21.6-75.41-25.83l-22.25-102.92l-70.62,10.41L1581.79,467.67z M1618.46,549.35
						c80.1-6.81,150.57,52.61,157.35,132.71c6.81,80.1-52.61,150.56-132.7,157.39c-80.11,6.8-150.57-52.63-157.37-132.73
						C1478.94,626.63,1538.36,556.16,1618.46,549.35z"></path>
          </g>
        </g>
        <g>
          <path d="M919.37,1126.38c-0.17-64.82,45.42-143.67,101.76-176.18l486.04-280.48c28.36-16.37,54.07-17.89,72.63-7.1l43.44,25.35
					c0.05,0.03,0.1,0.06,0.15,0.09l0.28,0.16l0,0.01c18.31,10.65,29.67,33.26,29.76,65.46l-0.51,1291.27
					c0.17,64.73-45.42,143.67-101.76,176.19l-486.03,280.48c-28.36,16.36-54.05,17.86-72.61,7.06l0,0.01l-43.88-25.59
					c-18.32-10.65-29.68-33.3-29.77-65.46L919.37,1126.38z"></path>
          <path d="M1073.73,992.01l94.28-54.41c2.22-1.28,4.81-1.79,7.35-1.43l51.66,7.25c2.54,0.36,5.13-0.14,7.35-1.43
					l152.28-87.86c1.07-0.62,2.04-1.41,2.86-2.33l75.14-84.72c0.82-0.93,1.79-1.71,2.86-2.33l103.8-59.9
					c30.48-17.59,68.56,4.41,68.56,39.6l-0.19,1302.6c-0.01,65.34-34.87,125.71-91.46,158.37l-79.38,45.82l-299.72,172.94
					l-128.57,74.21c-26.56,15.33-59.76-3.84-59.75-34.51l0.19-1311.33C981.02,1086.32,1016.36,1025.12,1073.73,992.01z" style="fill:none"></path>
          <path d="M1040.57,2498.39l128.57-74.21l299.72-172.94l79.38-45.82c56.59-32.66,91.45-93.04,91.46-158.37
					l0.19-1302.6c0-35.19-38.08-57.18-68.56-39.6l-103.8,59.9c-1.07,0.62-2.04,1.41-2.86,2.33l-75.14,84.72
					c-0.82,0.93-1.79,1.71-2.86,2.33L1234.38,942c-2.22,1.28-4.81,1.78-7.35,1.43l-51.66-7.25c-2.54-0.36-5.13,0.15-7.35,1.43
					l-94.28,54.41c-57.37,33.11-92.71,94.31-92.72,160.54l-0.19,1311.33C980.81,2494.55,1014.01,2513.72,1040.57,2498.39z" style="fill:#fff"></path>
          <path d="m1377.76 842.41-101.26 58.45c-5.58 3.22-10.1 1.31-10.1-4.27 0-5.58 4.52-12.71 10.1-15.93l101.26-58.45c5.58-3.22 10.1-1.31 10.1 4.27C1387.86 832.06 1383.34 839.19 1377.76 842.41zM943.53 1361.94c1.98 2.26 3.67 4.92 4.9 7.71 1.4 3.16 2.2 6.48 2.2 9.53l-.01 107.33c-.01 4.02-1.42 6.84-3.68 8.16l-9.18 5.32c2.27-1.32 3.68-4.14 3.69-8.16l.01-107.33c.01-3.05-.8-6.37-2.2-9.53-1.23-2.78-2.92-5.45-4.9-7.71-1.67-1.9-3.55-3.52-5.55-4.67l-3.49-2.01c-3.51-2.03-6.7-2.21-9.02-.86l9.17-5.33c2.31-1.35 5.51-1.16 9.02.86l3.49 2.01C939.97 1358.43 941.86 1360.04 943.53 1361.94z" style="fill:#fff"></path>
          <path d="M941.77,1384.61l-0.78,107.33c-0.08,8.1-5.77,11.28-12.78,7.16l-3.47-2.04c-6.95-4.08-12.57-13.9-12.49-22l0.78-107.33
					c0.08-8.01,5.83-11.23,12.78-7.16l3.47,2.04C936.3,1366.74,941.85,1376.6,941.77,1384.61z"></path>
          <path d="M1236.18,899.71c-6.85,3.95-12.38,13.54-12.36,21.41c0.02,7.87,5.59,11.05,12.44,7.1
					c6.85-3.95,12.39-13.54,12.37-21.41C1248.6,898.94,1243.03,895.76,1236.18,899.71z" style="fill:#fff"></path>
          <g>
            <path d="M1376.71,2237.07c1.2-0.24,2.33-0.36,3.34-0.36c1.97,0,3.5,0.45,4.26,1.3c1.13,1.27,1.13,4.15,0.01,7.5
						c-3.42,10.27-15.77,21.16-26.44,23.31c-3.53,0.71-6.44,0.35-7.58-0.95c-1.12-1.27-1.13-4.15-0.01-7.5
						C1353.75,2249.94,1365.86,2239.27,1376.71,2237.07z" style="fill:#fff"></path>
            <path d="M1338.49,2278.32c3.82,4.32,9.52,6.61,16.14,6.61c2.04,0,4.17-0.22,6.36-0.66c16.25-3.28,33.06-18.11,38.27-33.77
						c2.97-8.92,1.82-17.27-3.16-22.91c-5-5.66-13.21-7.83-22.5-5.95c-16.24,3.28-33.04,18.11-38.26,33.77
						C1332.36,2264.33,1333.51,2272.68,1338.49,2278.32z M1350.27,2260.39c3.48-10.45,15.58-21.12,26.43-23.31
						c1.2-0.24,2.33-0.36,3.34-0.36c1.97,0,3.5,0.45,4.26,1.3c1.13,1.27,1.13,4.15,0.01,7.5c-3.42,10.27-15.77,21.16-26.44,23.31
						c-3.53,0.71-6.44,0.35-7.58-0.95C1349.16,2266.61,1349.16,2263.74,1350.27,2260.39z"></path>
          </g>
        </g>
        <path d="M652.65,1608.08c-5.82,0-10.56-1.64-14.16-4.92c-5.96-5.42-7.5-14.04-4.58-25.61c5.51-21.84,25.66-41.68,55.29-54.43
				c22.5-9.69,47.54-13.95,69.63-12.15c28.29-36,52.47-81.53,60.01-131.66c6.17-40.96-4.55-67.35-31.86-78.47
				c-65.81,94.92-151.99,137.96-198.81,137.96c-0.18,0-0.36,0-0.54,0c-16.48-0.12-28.45-5.79-33.7-15.97
				c-4.27-8.28-5.87-23.12,10.74-46.86c40.71-58.16,148.03-110.08,215.79-93.69c6.77-10.33,13.28-21.26,19.44-32.79
				c21.89-40.96,24.66-75.63,8.22-103.05c-47.27-78.9-235.11-79.87-237.01-79.87c-4.35,0-7.87-3.53-7.87-7.87
				c0-4.35,3.53-7.87,7.87-7.87c8.09,0,198.65,1,250.51,87.51c19.48,32.5,16.85,72.4-7.84,118.58
				c-5.72,10.71-11.72,20.91-17.93,30.62c23.28,10.6,47.38,35.56,38.56,94.13c-7.48,49.7-30.63,95.2-58.38,132.13
				c20.75,5.36,61.49,24.13,48.5,87.96c-0.87,4.26-5.03,7.01-9.29,6.14c-4.26-0.87-7.01-5.02-6.15-9.29
				c9.83-48.32-15.75-64.77-38.95-70.05c-1.65-0.37-3.32-0.7-5-0.99c-33.5,40.4-71.33,68.42-96,77.18
				C662.94,1606.98,657.43,1608.08,652.65,1608.08z M746.11,1526.24c-42.88,0.77-89.41,25.37-96.93,55.16
				c-1.65,6.56-0.79,9.48-0.09,10.11c1,0.91,5.38,1.76,14.79-1.58C685.09,1582.39,716.74,1559.49,746.11,1526.24z M753.22,1295.08
				c-58.36,0-140.28,39.4-175.65,89.93c-9.31,13.29-12.82,24.45-9.65,30.61c2.41,4.66,9.63,7.38,19.82,7.45c0.15,0,0.3,0,0.45,0
				c41.27,0,120.77-40.39,182.57-126.65C765.23,1295.51,759.36,1295.08,753.22,1295.08z"></path>
        <g>
          <path d="M2277.01,774.56c-2.12-25.05-13.88-47.78-33.09-63.99c-19.22-16.21-43.6-23.95-68.66-21.83
					c-25.05,2.13-47.78,13.89-63.98,33.11c-16.21,19.22-23.96,43.6-21.83,68.65c4.39,51.72,50.03,90.21,101.76,85.83
					C2242.91,871.93,2281.4,826.28,2277.01,774.56z" style="fill:none"></path>
          <path d="M2392.59,749.97l-50.81,1.19c-3.88,0.14-7.34-2.53-8.28-6.32c-5.72-22.93-16.86-44.59-32.21-62.62
					c-2.42-2.85-2.65-6.95-0.57-10.05l33.24-49.41l-27.4-21.2l-38.49,43.42c-2.59,2.92-6.85,3.65-10.26,1.77
					c-15.72-8.66-32.67-14.46-50.36-17.25c-3.4-0.54-6.12-3.11-6.85-6.47l-14.01-64.82l-34.29,5.06l4.72,59.03
					c0.33,4.17-2.47,7.93-6.56,8.81c-23.92,5.14-46.58,16.09-65.54,31.67c-3.09,2.54-7.55,2.53-10.63-0.04l-40.56-33.81l-23.9,25.09
					l38.03,41.4c2.46,2.68,2.9,6.65,1.08,9.8c-11.62,20.12-18.41,42.04-20.2,65.16c-0.3,3.86-3.22,7.01-7.05,7.6l-60.29,9.2
					l2.93,34.51l62.14-1.13c3.81-0.14,7.09,2.38,8.15,5.98c6.39,21.69,17.25,41.32,32.27,58.37c2.47,2.8,2.77,6.9,0.75,10.03
					l-32.98,51.09l27.79,20.68l38.43-45.03c1.63-1.91,3.97-2.92,6.34-2.92c1.32,0,2.65,0.31,3.88,0.96
					c20.06,10.57,41.72,16.49,64.37,17.6c3.83,0.19,7.04,2.96,7.77,6.73l11.41,58.72l34.37-4.33l-3.55-60.12
					c-0.22-3.79,2.14-7.25,5.75-8.42c17.09-5.55,32.97-14,47.21-25.12c3.13-2.45,7.57-2.34,10.58,0.27l44.92,38.89l24.36-24.63
					l-41.51-46.95c-2.41-2.73-2.78-6.71-0.89-9.83c11.64-19.27,18.8-40.33,21.28-62.61c0.42-3.73,3.27-6.72,6.98-7.31l51.52-8.14
					L2392.59,749.97z M2192.61,892.94c-3.17,0.27-6.33,0.4-9.45,0.4c-56.9,0-105.43-43.72-110.33-101.42
					c-2.51-29.48,6.62-58.18,25.7-80.81c19.08-22.63,45.83-36.47,75.31-38.98c29.5-2.5,58.19,6.62,80.81,25.7
					c22.62,19.08,36.46,45.83,38.96,75.32C2298.79,834.02,2253.48,887.76,2192.61,892.94z" style="fill:#fff"></path>
          <path d="M2408.5,740.7c-0.39-4.37-4.17-7.78-8.5-7.58l-52.07,1.22c-6.13-20.97-16.36-40.81-29.91-58.01l34.13-50.74
					c2.45-3.64,1.65-8.56-1.81-11.24l-39.72-30.75c-3.47-2.68-8.43-2.22-11.34,1.06l-39.33,44.37
					c-14.02-7.03-28.84-12.06-44.22-15.01l-14.48-66.96c-0.93-4.29-5.04-7.12-9.36-6.48l-49.71,7.33c-4.34,0.64-7.44,4.54-7.09,8.91
					l4.78,59.68c-21.64,5.65-42.17,15.59-60.05,29.1l-41.36-34.48c-3.37-2.81-8.34-2.52-11.37,0.65l-34.66,36.38
					c-3.03,3.18-3.07,8.15-0.11,11.39l39.24,42.72c-10.02,18.85-16.31,39.05-18.76,60.21l-61.59,9.39
					c-4.34,0.66-7.42,4.57-7.05,8.94l4.26,50.05c0.37,4.32,3.98,7.63,8.3,7.63c0.05,0,0.1,0,0.15,0l63.7-1.16
					c6.58,19.64,16.56,37.68,29.73,53.76l-33.85,52.44c-2.38,3.69-1.49,8.59,2.03,11.2l40.3,29.99c3.52,2.62,8.47,2.06,11.31-1.27
					l39.25-45.99c18.57,8.89,38.29,14.27,58.79,16.05l11.68,60.08c0.77,3.96,4.24,6.74,8.17,6.74c0.35,0,0.7-0.02,1.05-0.07
					l49.84-6.27c4.35-0.55,7.54-4.38,7.28-8.76l-3.63-61.6c14.48-5.32,28.12-12.56,40.69-21.59l45.74,39.6
					c3.32,2.88,8.3,2.68,11.38-0.44l35.32-35.71c3.08-3.12,3.22-8.09,0.32-11.38l-42.69-48.29c10.04-18.02,16.63-37.39,19.66-57.72
					l53.07-8.38c4.33-0.68,7.39-4.61,7-8.98L2408.5,740.7z M2337.2,799.91c-2.48,22.28-9.64,43.34-21.28,62.61
					c-1.88,3.12-1.52,7.1,0.89,9.83l41.51,46.95l-24.36,24.63l-44.92-38.89c-3.01-2.61-7.45-2.72-10.58-0.27
					c-14.24,11.11-30.12,19.56-47.21,25.12c-3.61,1.17-5.97,4.63-5.75,8.42l3.55,60.12l-34.37,4.33l-11.41-58.72
					c-0.73-3.77-3.94-6.55-7.77-6.73c-22.65-1.11-44.31-7.03-64.37-17.6c-1.23-0.65-2.56-0.96-3.88-0.96
					c-2.38,0-4.71,1.02-6.34,2.92l-38.43,45.03l-27.79-20.68l32.98-51.09c2.02-3.13,1.72-7.23-0.75-10.03
					c-15.03-17.05-25.88-36.69-32.27-58.37c-1.06-3.6-4.33-6.12-8.15-5.98l-62.14,1.13l-2.93-34.51l60.29-9.2
					c3.83-0.59,6.75-3.73,7.05-7.6c1.79-23.11,8.59-45.03,20.2-65.16c1.82-3.15,1.38-7.12-1.08-9.8l-38.03-41.4l23.9-25.09
					l40.56,33.81c3.08,2.56,7.54,2.58,10.63,0.04c18.95-15.58,41.61-26.53,65.54-31.67c4.09-0.88,6.89-4.64,6.56-8.81l-4.72-59.03
					l34.29-5.06l14.01,64.82c0.73,3.36,3.45,5.94,6.85,6.47c17.69,2.79,34.64,8.59,50.36,17.25c3.41,1.88,7.67,1.15,10.26-1.77
					l38.49-43.42l27.4,21.2l-33.24,49.41c-2.09,3.1-1.85,7.21,0.57,10.05c15.35,18.04,26.49,39.7,32.21,62.62
					c0.94,3.78,4.4,6.46,8.28,6.32l50.81-1.19l3.11,34.49l-51.52,8.14C2340.47,793.18,2337.61,796.18,2337.2,799.91z"></path>
          <path d="M2254.66,697.83c-22.62-19.08-51.32-28.2-80.81-25.7c-29.49,2.51-56.24,16.35-75.31,38.98
					c-19.08,22.63-28.21,51.32-25.7,80.81c4.9,57.7,53.43,101.43,110.33,101.42c3.12,0,6.28-0.13,9.45-0.4
					c60.86-5.18,106.17-58.92,101-119.79C2291.12,743.66,2277.28,716.91,2254.66,697.83z M2089.44,790.51
					c-2.13-25.05,5.62-49.43,21.83-68.65c16.21-19.22,38.93-30.98,63.98-33.11c25.05-2.12,49.44,5.62,68.66,21.83
					c19.22,16.21,30.97,38.93,33.09,63.99c4.4,51.71-34.1,97.37-85.8,101.77C2139.47,880.72,2093.83,842.22,2089.44,790.51z"></path>
        </g>
        <g>
          <path d="M941.74,1066.83l44.05-193.1c-11.84-2.18-23.89-3.28-35.92-3.28c-52.58,0-102.26,20.72-139.88,58.35
					c-37.62,37.62-58.35,87.3-58.35,139.88c0,52.58,20.72,102.26,58.35,139.88c37.63,37.62,87.3,58.35,139.88,58.35
					c55.5,0,108.09-23.1,145.56-63.67l-150.96-128.21C942.1,1073.03,941.04,1069.86,941.74,1066.83z" style="fill:#fff"></path>
          <path d="M1112.7,1196.05l-153.59-130.45l44.82-196.46c0.49-2.15,0.11-4.42-1.07-6.29s-3.05-3.2-5.2-3.69
					c-15.66-3.57-31.74-5.38-47.79-5.38c-57.03,0-110.9,22.46-151.67,63.23c-40.77,40.77-63.23,94.64-63.23,151.67
					s22.46,110.9,63.23,151.67c40.77,40.77,94.64,63.23,151.67,63.23c63.19,0,122.89-27.62,163.79-75.78
					C1116.63,1204.29,1116.2,1199.03,1112.7,1196.05z M949.86,1266.92c-52.58,0-102.26-20.72-139.88-58.35
					c-37.62-37.62-58.35-87.3-58.35-139.88c0-52.58,20.72-102.26,58.35-139.88c37.63-37.62,87.3-58.35,139.88-58.35
					c12.03,0,24.08,1.1,35.92,3.28l-44.05,193.1c-0.69,3.03,0.36,6.19,2.73,8.2l150.96,128.21
					C1057.95,1243.81,1005.36,1266.92,949.86,1266.92z"></path>
        </g>
        <g>
          <path d="M1045.72,877.4l-67.34,171.44l183-20.94c-5.14-32.71-18.41-63.66-38.64-89.99
					C1102.5,911.59,1076,890.79,1045.72,877.4z" style="fill:#fff"></path>
          <path d="M1179.06,1034.26c-4.43-38.75-19.34-75.58-43.11-106.51c-23.77-30.93-55.52-54.81-91.83-69.07
					c-2.05-0.81-4.35-0.77-6.38,0.12c-2.03,0.88-3.62,2.53-4.43,4.59l-75.52,192.26c-1.07,2.72-0.63,5.81,1.15,8.12
					c1.59,2.06,4.04,3.26,6.61,3.26c0.31,0,0.63-0.02,0.95-0.05l205.22-23.49C1176.3,1042.96,1179.58,1038.83,1179.06,1034.26z
					 M978.38,1048.84l67.34-171.44c30.28,13.39,56.78,34.19,77.01,60.51c20.23,26.33,33.5,57.28,38.64,89.99L978.38,1048.84z"></path>
        </g>
        <g>
          <path d="M1173.08,1070.39l-171.13,8.18l145.47,90.51c16.81-29.73,25.66-63.29,25.66-97.55
					C1173.08,1071.14,1173.08,1070.76,1173.08,1070.39z" style="fill:#fff"></path>
          <path d="M1189.5,1061.26c-0.22-4.6-4.18-8.27-8.72-7.92l-206.33,9.86c-3.64,0.17-6.75,2.7-7.67,6.23
					c-0.92,3.53,0.57,7.25,3.66,9.17l175.39,109.12c1.37,0.85,2.89,1.26,4.39,1.26c2.78,0,5.51-1.39,7.08-3.93
					c21.22-34.1,32.43-73.36,32.43-113.53C1189.75,1068.09,1189.67,1064.64,1189.5,1061.26z M1001.95,1078.57l171.13-8.18
					c0,0.38,0,0.75,0,1.13c0,34.27-8.85,67.82-25.66,97.55L1001.95,1078.57z"></path>
        </g>
        <path d="M2484.01,2348.53c-2.18,0-4.35-0.9-5.9-2.66c-2.88-3.26-2.58-8.24,0.68-11.12c0.52-0.46,52.41-46.53,100.07-104.24
				c61.79-74.83,88.64-134.91,77.64-173.77c-7.83-27.67-35.8-45.87-83.13-54.11c-49.82-8.68-93.89-1.71-131.55,14.74
				c-23.82,90.8-72.24,181.74-119.84,215.05c-18.39,12.86-29.4,9.55-35.41,4.52c-18.17-15.24-6.47-59.7,9.07-93.15
				c24.51-52.75,69.7-107.65,132.67-137.66c6.94-27.83,11.41-55.38,12.59-80.74c2.22-47.8-7.51-82.31-28.14-99.81
				c-3.32-2.81-3.73-7.78-0.91-11.1c2.81-3.32,7.79-3.72,11.1-0.91c24.5,20.77,36.14,59.69,33.69,112.55
				c-1.07,22.98-4.64,47.46-10.19,72.26c37.72-14.3,81.1-19.71,129.63-11.27c53.8,9.37,85.96,31.35,95.58,65.34
				c29.72,105.02-173.75,286.43-182.43,294.1C2487.73,2347.88,2485.87,2348.53,2484.01,2348.53z M2422.73,2026.8
				c-52.95,29.26-91.28,77.33-112.8,123.62c-20.22,43.5-18.6,69.95-13.24,74.45c2.38,1.99,8.76-0.11,16.26-5.36
				C2354.9,2190.17,2398.72,2109.33,2422.73,2026.8z"></path>
        <g>
          <path d="M1567.2,2110.39c-24.65-21.18-26.67-22.9-26.12-28.72c0.24-2.59,1.8-5.11,4.01-6.5
					c8.18-6.08,61.84-65.42,66.23-101.77c0.85-7.07-0.29-12.35-3.48-16.13c-4.13-4.89-6.98-5.07-7.91-5.12
					c-7.46-0.47-18.85,10.14-30.94,21.36c-18.68,17.33-41.92,38.9-73.26,43.67c-36.81,5.61-50.52-10.48-67.88-30.83
					c-14.8-17.35-33.21-38.95-74.33-57.42c-31.17-14.01-56.26-16.93-74.56-8.69c-16.48,7.42-21.9,21.67-22.64,23.84
					c-7,32.8,4.2,52.99,15.04,72.52c12.33,22.22,25.09,45.2,6.99,81.14c-26.26,52.16-98.42,309.06-61.67,389.46
					c5.21,11.39,12.14,18.04,21.21,20.32c74.85,18.86,376.74,25.33,489.67-48.96c23.64-15.55,37.29-33.75,40.58-54.09
					C1785.37,2297.77,1626.87,2161.64,1567.2,2110.39z" style="fill:#fff"></path>
          <path d="M1578.06,2097.74c-6.57-5.64-12.9-11.08-17.02-14.82c17.93-17.84,59.9-67.43,66.34-104.3
					c2.31-13.22,0.02-24.02-6.81-32.12c-5.79-6.86-12.4-10.57-19.64-11.01c-14.51-0.9-27.87,11.47-43.29,25.78
					c-17.89,16.6-38.17,35.41-64.44,39.41c-27.63,4.21-36.53-6.23-52.69-25.17c-15.04-17.64-35.65-41.8-80.18-61.81
					c-35.92-16.14-65.73-19.01-88.62-8.51c-24.34,11.16-31.18,33.38-31.46,34.32c-0.06,0.2-0.11,0.4-0.15,0.6
					c-8.51,39.17,4.87,63.28,16.67,84.54c11.63,20.95,20.81,37.49,6.67,65.56c-25,49.65-102.37,315.43-61.94,403.88
					c7.34,16.06,18.21,26,32.3,29.55c27.99,7.05,89.19,12.76,161.99,12.76c23.25,0,47.69-0.58,72.6-1.89
					c156.26-8.21,232.16-38.28,268.31-62.07c27.7-18.22,43.81-40.21,47.88-65.35C1803.31,2291.21,1639.66,2150.66,1578.06,2097.74z
					 M1768.12,2404.45c-3.29,20.34-16.94,38.54-40.58,54.09c-112.93,74.28-414.82,67.82-489.67,48.96
					c-9.07-2.28-16.01-8.93-21.21-20.32c-36.75-80.4,35.41-337.3,61.67-389.46c18.1-35.94,5.34-58.92-6.99-81.14
					c-10.84-19.53-22.04-39.72-15.04-72.52c0.74-2.17,6.16-16.42,22.64-23.84c18.3-8.24,43.39-5.32,74.56,8.69
					c41.12,18.48,59.54,40.07,74.33,57.42c17.36,20.36,31.07,36.44,67.88,30.83c31.34-4.77,54.58-26.34,73.26-43.67
					c12.09-11.22,23.48-21.83,30.94-21.36c0.94,0.06,3.78,0.23,7.91,5.12c3.19,3.78,4.33,9.06,3.48,16.13
					c-4.38,36.34-58.04,95.69-66.23,101.77c-2.21,1.39-3.77,3.91-4.01,6.5c-0.54,5.82,1.47,7.55,26.12,28.72
					C1626.87,2161.64,1785.37,2297.77,1768.12,2404.45z"></path>
        </g>
        <path d="M1450.55,2104.49c-24.39,0-51.08-1.82-79.97-5.46c-56.66-7.15-101.29-19.07-101.74-19.19c-4.2-1.13-6.69-5.45-5.55-9.65
				c1.13-4.2,5.46-6.68,9.65-5.56c1.73,0.46,174.41,46.21,273.9,10.19c4.09-1.48,8.6,0.63,10.08,4.72c1.48,4.09-0.63,8.6-4.72,10.08
				C1524.84,2099.53,1490.82,2104.49,1450.55,2104.49z"></path>
        <path d="M1432,2124.56c-19.81,0-41.07-1-63.75-3.01c-59.44-5.26-107.13-15.87-107.61-15.98c-4.24-0.95-6.91-5.16-5.96-9.41
				c0.95-4.25,5.16-6.91,9.41-5.96c1.85,0.42,186.61,41.12,284.25,0.42c4.01-1.67,8.62,0.22,10.3,4.24
				c1.67,4.01-0.22,8.62-4.24,10.3C1523.44,2118.08,1482.42,2124.56,1432,2124.56z"></path>
        <circle cx="1494.3" cy="2107.27" r="16.51"></circle>
        <path d="M1570.24 2148.57c-18.26-24.61-51.39-43.1-68.9-51.68 11.72-3.38 32.67-11.54 39.57-28.02 4.27-10.19 2.49-21.29-5.29-32.99-6.91-10.39-14.43-14.71-22.39-12.83-7.29 1.71-12.88 9.15-17.16 18.73-4.83-8.93-13.77-14.58-26.72-16.72-12.3-2.02-20.6.54-24.65 7.63-9.75 17.05 17.23 52.47 29.28 66.91 1.36 1.63 3.33 2.59 5.41 2.76.65 5.08 1.91 18.97-1.3 34.22-5.14 24.46-19.04 40.96-41.3 49.02-4.09 1.48-6.2 6-4.72 10.08 1.16 3.2 4.18 5.2 7.4 5.19.89 0 1.8-.15 2.68-.47 48.76-17.65 54.2-64.78 53.63-88.66 16.54 8.26 46.11 25.05 61.81 46.21 2.59 3.49 7.53 4.23 11.01 1.63C1572.1 2156.99 1572.83 2152.06 1570.24 2148.57zM1516.6 2038.39c.02 0 2.15.56 5.91 6.21 4.74 7.13 6.02 13.08 3.89 18.17-3.46 8.28-15.06 14.09-24.7 17.46C1505.58 2058.82 1512.17 2039.9 1516.6 2038.39zM1458.21 2040.68c.01-.01.88-.56 3.55-.56 1.25 0 2.89.12 5.02.47 8.45 1.39 13.67 4.52 15.95 9.55 3.7 8.18.04 20.63-4.07 29.97C1465.65 2062.67 1456.31 2044.95 1458.21 2040.68zM1432.53 2339.28c-4.66-5.73-11.26-10.53-19.82-14.41-8.56-3.88-19.46-6.98-32.71-9.32-11.17-1.95-19.94-3.65-26.33-5.09-6.39-1.44-11.52-3.45-15.4-6.03-3.88-2.58-5.97-6.08-6.25-10.5-.31-4.83 1.94-9.02 6.76-12.59 4.82-3.56 11.03-5.6 18.63-6.09 7.4-.48 13.33.37 17.81 2.55 4.47 2.19 8.44 5.23 11.89 9.13 4.23 4.68 7.93 8.15 11.13 10.42 3.19 2.27 6.94 3.26 11.26 2.98 5.96-.39 10.45-2.23 13.49-5.52 3.03-3.29 4.39-7.35 4.08-12.18-.29-4.42-2.1-8.84-5.43-13.26-3.33-4.42-8.03-8.35-14.08-11.77-6.05-3.42-13.49-5.98-22.32-7.68-3.83-.73-7.89-1.2-12.11-1.48l-.94-14.42c-.53-8.13-7.55-14.29-15.68-13.76-8.13.53-14.29 7.55-13.76 15.68l.91 13.94c-8.73 1.52-16.44 4.03-23.06 7.59-9.52 5.11-16.55 11.58-21.09 19.4-4.54 7.83-6.54 15.95-5.99 24.38.62 9.45 3.85 17.23 9.72 23.35 5.86 6.12 13.47 10.86 22.82 14.22s21.38 6.37 36.1 9.02c13.04 2.25 22.47 4.88 28.29 7.9 5.82 3.02 8.97 8.23 9.45 15.63.32 4.83-2.1 9.29-7.25 13.39-5.15 4.1-11.94 6.43-20.36 6.98-10.37.68-18.69-.64-24.94-3.94s-11.78-8.57-16.58-15.78c-2.41-3.76-4.87-6.65-7.37-8.65-2.5-2-5.96-2.86-10.38-2.57-5.03.33-9.09 2.24-12.16 5.74-3.07 3.5-4.46 7.56-4.16 12.19.46 6.99 3.48 13.78 9.07 20.37 5.59 6.6 13.93 11.86 25.01 15.78 7.14 2.52 15.13 4.02 23.93 4.51l.75 11.43c.53 8.13 7.55 14.29 15.68 13.76 8.13-.53 14.29-7.55 13.76-15.68l-.73-11.19c9.77-1.56 18.38-4.03 25.77-7.45 10.76-4.98 18.7-11.79 23.81-20.43 5.11-8.64 7.29-18.76 6.53-30.37C1439.76 2351.73 1437.18 2345.01 1432.53 2339.28zM2407.09 1607.39l-170.45-240.47c-2.16-3.05-6.1-4.29-9.62-3.02l-96.13 34.58-107.75-161.28c-2.2-3.29-6.43-4.58-10.09-3.08l-147.75 60.68-123.74-204.29c-2.13-3.51-6.5-4.95-10.29-3.39l-148.75 61.09c-.12.05-.23.12-.34.18-.44.2-.85.43-1.24.7-.16.11-.31.24-.46.36-.33.27-.64.55-.93.86-.08.08-.17.14-.25.23l-76.24 89.96-24.58-39.9c-2.14-3.48-6.49-4.89-10.26-3.34l-148.77 61.11c-.16.07-.3.18-.46.25-.25.12-.49.25-.73.4-.34.21-.65.44-.95.69-.21.17-.41.34-.6.53-.3.3-.55.63-.8.97-.11.15-.25.26-.35.42l-169.82 268.51c-.84 1.32-1.28 2.86-1.29 4.42l-.38 97.57c0 .02.01.04.01.05 0 .15.03.3.04.45.02.44.06.87.15 1.28.04.18.11.35.16.52.11.38.22.75.38 1.11.08.19.19.36.28.54.18.33.36.64.58.94.06.08.09.17.16.25.07.1.17.17.25.26.23.27.48.53.75.77.16.15.32.29.49.43.29.23.6.42.92.61.17.1.34.21.52.3.37.18.76.32 1.15.44.15.05.3.12.45.16.56.14 1.13.23 1.73.26l1099.11 41.14c.1 0 .21.01.31.01 0 0 0 0 0 0 0 0 0 0 0 0 0 0 0 0 .01 0 .67 0 1.33-.11 1.98-.27.19-.05.36-.11.55-.16.21-.07.43-.11.63-.19l148.77-61.1c2.35-.97 4.13-2.95 4.84-5.39C2409 1612.09 2408.56 1609.47 2407.09 1607.39z"></path>
        <path d="M1981.62,1477.48c-3.6,1.29-7.63-0.03-9.75-3.21l-106.77-159.8l-130.72,86.39
				c-1.89,1.25-4.21,1.67-6.42,1.18c-2.21-0.5-4.13-1.87-5.3-3.81l-138.13-228.05l-184.13,217.28c-1.73,2.04-4.35,3.11-6.99,2.92
				c-2.66-0.2-5.07-1.67-6.47-3.94l-64.42-104.6l-161.4,255.19l-0.34,87.12l1074.18,40.21l-157.02-221.53L1981.62,1477.48z" style="fill:#fff"></path>
      </g>
    </g>
  </g>
</svg>
