<svg xmlns="http://www.w3.org/2000/svg" xml:space="preserve" id="business-stats" x="0" y="0" enable-background="new 0 0 300 225" version="1.1" viewBox="0 0 300 225">
  <g>
    <path fill="none" stroke="#000" stroke-miterlimit="10" stroke-width=".316" d="M224.32,84.39c2.63,10.9,60.32,31.81,41.51,77.31c-8.98,21.71-30.23,38.25-56.54,44.54
		c-71.98,17.19-139.19-9.63-139.19-9.63C38.67,183,28.74,162.68,30.63,143.19c2.72-28.13,21.59-31.55,29.15-42.23
		c3.37-4.75,4.88-10.55,6.33-16.81c5.69-24.54,27.17-40.52,50.05-37.21c4.52,0.65,9.7,1.53,15.64,2.71
		c5.52,1.09,11.23,0.96,16.68-0.44C166.94,44.48,213.06,37.73,224.32,84.39z"></path>
    <path fill="#fff" stroke="#000" stroke-linecap="round" stroke-linejoin="round" stroke-miterlimit="10" stroke-width=".316" d="M148.85,78.77H45.78c-2.28,0-4.13-1.85-4.13-4.13V17.08c0-2.28,1.85-4.13,4.13-4.13h103.06
		c2.28,0,4.13,1.85,4.13,4.13v57.56C152.97,76.92,151.13,78.77,148.85,78.77z"></path>
    <g>
      <g>
        <line x1="52.29" x2="52.29" y1="64.88" y2="49" fill="none" stroke="#000" stroke-miterlimit="10" stroke-width=".316"></line>
        <line x1="63.54" x2="63.54" y1="64.88" y2="52.6" fill="none" stroke="#000" stroke-miterlimit="10" stroke-width=".316"></line>
        <line x1="74.8" x2="74.8" y1="64.88" y2="45.12" fill="none" stroke="#000" stroke-miterlimit="10" stroke-width=".316"></line>
        <line x1="86.06" x2="86.06" y1="64.88" y2="47.64" fill="none" stroke="#000" stroke-miterlimit="10" stroke-width=".316"></line>
        <line x1="97.32" x2="97.32" y1="64.88" y2="38.34" fill="none" stroke="#000" stroke-miterlimit="10" stroke-width=".316"></line>
        <line x1="108.57" x2="108.57" y1="64.88" y2="35.78" fill="none" stroke="#000" stroke-miterlimit="10" stroke-width=".316"></line>
        <line x1="119.83" x2="119.83" y1="64.88" y2="44.6" fill="none" stroke="#000" stroke-miterlimit="10" stroke-width=".316"></line>
        <line x1="131.09" x2="131.09" y1="64.88" y2="40.63" fill="none" stroke="#000" stroke-miterlimit="10" stroke-width=".316"></line>
        <line x1="142.34" x2="142.34" y1="64.88" y2="28.56" fill="none" stroke="#000" stroke-miterlimit="10" stroke-width=".316"></line>
      </g>
      <line x1="45.81" x2="148.82" y1="64.88" y2="64.88" fill="none" stroke="#000" stroke-miterlimit="10" stroke-width=".316"></line>
      <path fill="none" stroke="#000" stroke-linecap="round" stroke-linejoin="round" stroke-miterlimit="10" stroke-width=".947" d="M47.28,48.08c4.74,0.17,12.84,3.96,12.84,3.96c2.11,0.82,4.49,0.86,6.22-0.6l5.39-4.95
			c1.86-1.56,4.47-1.89,6.66-0.84l2.88,1.39c2.87,1.38,6.29,0.82,8.57-1.4l7.47-7.29c0,0,2.09-2.36,6.4-3.31
			c2.67-0.59,5.46,0.29,7.33,2.29c1.39,1.49,3.18,3.39,4.8,5.11c2.33,2.47,6.03,3.08,9.03,1.49l6.21-3.28c0,0,4.24-2.19,5.4-6.91
			c1.16-4.74,5.85-5.75,9.45-5.3"></path>
      <circle cx="52.29" cy="49" r="1.72" fill="#73a580"></circle>
      <circle cx="63.54" cy="52.34" r="1.72" fill="#73a580"></circle>
      <circle cx="74.8" cy="45.12" r="1.72" fill="#73a580"></circle>
      <circle cx="86.06" cy="47.64" r="1.72" fill="#73a580"></circle>
      <circle cx="97.32" cy="38.36" r="1.72" fill="#73a580"></circle>
      <circle cx="108.57" cy="35.78" r="1.72" fill="#73a580"></circle>
      <circle cx="119.83" cy="44.6" r="1.72" fill="#73a580"></circle>
      <circle cx="131.09" cy="40.94" r="1.72" fill="#73a580"></circle>
      <circle cx="142.34" cy="28.56" r="1.72" fill="#73a580"></circle>
    </g>
    <g>
      <g>
        <g>
          <polygon points="250.37 212.05 251.7 212.05 248.79 164.49 245.52 164.49"></polygon>
        </g>
      </g>
      <g>
        <g>
          <polygon points="198.75 212.05 197.42 212.05 200.33 164.49 203.6 164.49"></polygon>
        </g>
      </g>
      <g>
        <g>
          <g>
            <polygon fill="#fff" stroke="#000" stroke-linecap="round" stroke-linejoin="round" stroke-miterlimit="10" stroke-width=".316" points="260.99 97.99 223.83 97.99 209.61 161.28 250.07 161.66"></polygon>
          </g>
        </g>
      </g>
      <path d="M244.72,159.11c1.41,0,2.62-1,2.88-2.39l10.81-57.02c0.27-1.43,1.64-2.37,3.07-2.1c1.43,0.27,2.37,1.64,2.1,3.07
			l-10.89,58.09c-0.73,3.87-4.11,6.68-8.05,6.68H198.3c-2.14,0-3.87-1.73-3.87-3.87v0c0-2.22,1.86-3.98,4.08-3.86L244.72,159.11z"></path>
    </g>
    <rect width="16.92" height="16.92" x="171.06" y="185.83" fill="#fff" stroke="#000" stroke-linecap="round" stroke-linejoin="round" stroke-miterlimit="10" stroke-width=".316" transform="rotate(-6.174 179.603 194.318)"></rect>
    <g>
      <path fill="#73a580" d="M189.79,208.32l-33.5-0.24v0c0.01-1.83,1.01-3.52,2.62-4.41c4.21-2.34,12.08-6.68,12.3-6.78
			c0.29-0.14,0.68,0.1,0.96,0.4c0,0,1.16,1.31,2.27,1.81l0,0c0.3,0.13,0.65,0.26,1.05,0.38c1.45,0.44,3.59,0.74,6.48,0.73
			c3.24-0.01,5.45-0.74,5.74-0.75c0.29-0.01,0.82,0.54,0.89,0.95c0.02,0.09,0.08,0.53,0.18,1.16
			C189.12,203.79,189.79,208.32,189.79,208.32z"></path>
      <g>
        <path d="M175.49,199.49l-9.61,6.58c-0.08,0.05-0.17,0.08-0.26,0.08c-0.14,0-0.28-0.07-0.37-0.2c-0.14-0.21-0.09-0.49,0.12-0.63
				l9.08-6.21C174.74,199.25,175.09,199.38,175.49,199.49z"></path>
      </g>
      <polygon points="156.27 211.6 189.78 211.84 189.79 208.32 156.29 208.08"></polygon>
    </g>
    <path fill="#fff" stroke="#000" stroke-linecap="round" stroke-linejoin="round" stroke-miterlimit="10" stroke-width=".316" d="M165,155.56c-0.25-12.32,9.63-22.61,22.08-22.68c0.14,0,0.28,0,0.42,0c3.49,0,7.32,0.14,11.2,0.36l31.24-7.58
		l0.55,18.5c0.23,7.76-6.04,14.16-13.8,14.07c-1.69-0.02-18.65,0.16-25.12,0.03c-1.25-0.02-2.25,1.02-2.19,2.26
		c0.55,10.43,2.1,35.35,2.1,35.35l-21.75-1.58l-4.66-37.13v0C165.02,156.62,164.99,156.09,165,155.56z"></path>
    <rect width="16.38" height="16.92" x="184.13" y="185.86" fill="#fff" stroke="#000" stroke-linecap="round" stroke-linejoin="round" stroke-miterlimit="10" stroke-width=".316" transform="rotate(-6.174 192.405 194.346)"></rect>
    <g>
      <path fill="#73a580" d="M203.42,208.18l-33.5,0.05l0,0c0-1.83,0.98-3.53,2.58-4.43c4.19-2.38,12.03-6.78,12.24-6.88
			c0.29-0.14,0.68,0.09,0.96,0.39c0,0,1.17,1.3,2.29,1.79l0,0c0.3,0.13,0.65,0.26,1.05,0.37c1.46,0.42,3.59,0.71,6.48,0.68
			c3.24-0.04,5.44-0.79,5.73-0.8c0.29-0.01,0.82,0.53,0.9,0.94c0.02,0.09,0.09,0.53,0.19,1.16
			C202.71,203.66,203.42,208.18,203.42,208.18z"></path>
      <g>
        <path d="M189.04,199.47l-9.56,6.66c-0.08,0.05-0.17,0.08-0.26,0.08c-0.14,0-0.29-0.07-0.37-0.19c-0.15-0.21-0.09-0.49,0.11-0.63
				l9.02-6.29C188.29,199.23,188.64,199.36,189.04,199.47z"></path>
      </g>
      <rect width="33.5" height="3.62" x="169.92" y="208.2" transform="translate(-.283 .252)"></rect>
    </g>
    <path fill="#fff" stroke="#000" stroke-linecap="round" stroke-linejoin="round" stroke-miterlimit="10" stroke-width=".316" d="M177.8,155.56c-0.25-12.32,9.63-22.61,22.08-22.68c0.14,0,0.28,0,0.42,0c3.49,0,7.32,0.14,11.2,0.36
		l31.24-7.58l0.55,18.5c0.23,7.76-6.04,14.16-13.8,14.07c-1.69-0.02-18.65,0.16-25.12,0.03c-1.25-0.02-2.25,1.02-2.19,2.26
		c0.55,10.43,2.57,35.35,2.57,35.35l-21.9-1.11l-4.96-37.59v0C177.82,156.62,177.8,156.09,177.8,155.56z"></path>
    <path d="M232.39,76.14c0,0-3.88,18.42-12.1,25.32c0,0-6.27-5-3.71-24.76l8.16-2.77L232.39,76.14z"></path>
    <polygon fill="#fff" stroke="#000" stroke-linecap="round" stroke-linejoin="round" stroke-miterlimit="10" stroke-width=".316" points="228.51 78.28 228.01 69.33 220.12 70.54 220.2 72.64 220.4 77.9 223.54 79.42"></polygon>
    <path fill="#fff" d="M222.55,78.69h0.99h1.01v16.5c-1.16,3.31-4.43,5.21-4.43,5.21s-1.65-2.94-1.89-4.16L222.55,78.69z"></path>
    <path fill="#73a580" d="M252.19,122.27c-0.04,0-0.08,0.01-0.13,0.01l-2.08,0.32l-11,1.67l-5.61-11.05l12.22-3.03l0.78-0.19
		c2.75-0.83,4.69-3.39,4.42-6.2l0.12-15.57l5.04,2.01c2.33,4.59,4.49,10.87,6.01,19.45C263.07,115.95,258.53,121.87,252.19,122.27z"></path>
    <polygon points="231.39 75.99 226.11 80.68 223.54 78.69 228.41 75.11"></polygon>
    <polygon points="217.85 76.26 221.29 80.28 223.54 78.69 220.32 75.81"></polygon>
    <path fill="#73a580" d="M220.29,99.2c0,0-5.54-9.32-2.43-22.94c0,0-2.89,1.01-7.2,2.46c-3.87,1.31-6.48,4.93-6.5,9.01l-3.58,45.15
		c2.91,4.15,41.35,7.88,41.35,7.88c0.86,0.02,1.59-0.61,1.69-1.47l2.46-57.98c0.21-1.59-0.85-3.07-2.42-3.38
		c-3.46-0.69-9.06-1.97-12.16-2.05C231.5,75.88,227.02,93.3,220.29,99.2z"></path>
    <path fill="#73a580" d="M252.19,122.27c-0.04,0-0.08,0.01-0.13,0.01l-2.08,0.32c-0.7-3.74-2.01-8.03-4.39-12.41
		c-1.55-2.86-3.56-5.75-6.15-8.55l3.35-23.89c0,0,7.14,0.58,13.17,12.48c2.33,4.59,4.49,10.87,6.01,19.45
		C263.07,115.95,258.53,121.87,252.19,122.27z"></path>
    <path fill="#fff" stroke="#000" stroke-linecap="round" stroke-linejoin="round" stroke-miterlimit="10" stroke-width=".316" d="M229.75,66.32c-1.38,4.55-6.36,7.8-9.2,6.47c-4.06-1.9-3.49-5.16-2.92-9.88c0.78-6.53,4.92-7.51,7.92-6.6
		S231.13,61.76,229.75,66.32z"></path>
    <path d="M231.69,56.74c0,0,7.05-0.72,3.75,13.01c0,0-0.49,4.86-7.13,5.07l-0.77-6.57c0.04-1.18,0.49-2.26,1.21-3.09
		c-0.37-0.36-0.67-0.78-0.91-1.24c-3.36-4.25-6.44-3.04-6.44-3.04c-0.35,0.07-0.71,0.1-1.09,0.09c-2.73-0.09-4.06-2.37-3.97-5.1
		c0,0,0.54-5.5,8.13-4.05C232.05,53.24,231.69,56.74,231.69,56.74z"></path>
    <ellipse cx="228.93" cy="66.5" fill="#fff" rx="3.36" ry="2.69" transform="rotate(-84.324 228.92 66.507)"></ellipse>
    <g>
      <path d="M229.79,68.26c-0.1,0-0.2-0.07-0.23-0.17c-0.08-0.3-0.23-0.5-0.44-0.61c-0.42-0.21-0.97,0.01-0.98,0.02
			c-0.07,0.03-0.16,0.02-0.22-0.03c-0.07-0.05-0.1-0.12-0.1-0.2c0.08-1.93,1.61-2.49,1.67-2.51c0.12-0.04,0.26,0.02,0.3,0.14
			c0.04,0.12-0.02,0.26-0.14,0.3l0,0c-0.05,0.02-1.12,0.42-1.33,1.76c0.27-0.05,0.66-0.07,1,0.1c0.34,0.17,0.57,0.47,0.69,0.91
			c0.03,0.13-0.04,0.26-0.16,0.29C229.84,68.26,229.82,68.26,229.79,68.26z"></path>
    </g>
    <g>
      <path fill="#fff" stroke="#000" stroke-linecap="round" stroke-linejoin="round" stroke-miterlimit="10" stroke-width=".316" d="M240.88,130.29l-18.13,10.56c-0.74,0.43-1.69,0.18-2.12-0.56l-14.7-25.23c-0.43-0.74-0.18-1.69,0.56-2.12
			l18.13-10.56c0.74-0.43,1.69-0.18,2.12,0.56l14.7,25.23C241.87,128.91,241.62,129.86,240.88,130.29z"></path>
      <rect width="28.53" height="20.32" x="209.41" y="111.46" transform="rotate(59.776 223.668 121.607)"></rect>
    </g>
    <g>
      <path fill="#fff" stroke="#000" stroke-linecap="round" stroke-linejoin="round" stroke-miterlimit="10" stroke-width=".316" d="M238.11,125.01c-3.55,0.81-4.81,0.63-4.81,0.63c-1.76,2.03-3.43,1.64-4.3,1.03
			c-0.87-0.61,0.12-1.37,0.12-1.37l2.19-2.39c0,0-1.54,0.81-2.2,0.93c-0.66,0.13-1.25,0.13-2.23-0.69s-0.06-1.48-0.06-1.48
			l2.31-1.92c0,0-1,0.8-2.78-0.04c-1.79-0.84-0.62-1.73-0.62-1.73l1.45-1.01c-0.66,0.03-1.2-0.27-1.2-0.27
			c-1.42-0.8-0.38-1.58-0.38-1.58c2.17-1.34,4.39-1.78,4.39-1.78c1.71-0.48,3.09-0.6,4.13-0.59c1.38,0.03,2.68,0.75,3.1,2.07
			C238.26,118.09,241.34,124.28,238.11,125.01z"></path>
      <g>
        <path d="M227.19,117.15c-0.06,0-0.11-0.03-0.14-0.08c-0.05-0.08-0.02-0.18,0.06-0.23c0.1-0.06,2.59-1.53,6.11-1.26
				c0.09,0.01,0.16,0.09,0.15,0.18c-0.01,0.09-0.09,0.16-0.18,0.15c-3.41-0.27-5.89,1.2-5.91,1.21
				C227.25,117.14,227.22,117.15,227.19,117.15z"></path>
      </g>
      <g>
        <path d="M229.14,119.93c-0.05,0-0.11-0.03-0.14-0.08c-0.05-0.08-0.03-0.18,0.05-0.23c0.09-0.06,2.36-1.46,5.23-1.02
				c0.09,0.01,0.15,0.1,0.14,0.19c-0.01,0.09-0.1,0.15-0.19,0.14c-2.75-0.43-4.98,0.96-5,0.97
				C229.2,119.92,229.17,119.93,229.14,119.93z"></path>
      </g>
      <g>
        <path d="M231.31,123.08c-0.06,0-0.11-0.03-0.14-0.08c-0.05-0.08-0.02-0.18,0.06-0.23c0.08-0.05,2.01-1.17,4.06-1.17
				c0.09,0,0.16,0.07,0.16,0.16c0,0.09-0.07,0.16-0.16,0.16c-1.96,0-3.87,1.12-3.89,1.13C231.37,123.07,231.34,123.08,231.31,123.08
				z"></path>
      </g>
    </g>
    <line x1="246.72" x2="235.45" y1="109.84" y2="113.03" fill="none" stroke="#000" stroke-linecap="round" stroke-linejoin="round" stroke-miterlimit="10" stroke-width=".316"></line>
    <line x1="244.13" x2="239.19" y1="123.48" y2="124.31" fill="none" stroke="#000" stroke-linecap="round" stroke-linejoin="round" stroke-miterlimit="10" stroke-width=".316"></line>
    <g>
      <g>
        <path fill="#fff" stroke="#000" stroke-linecap="round" stroke-linejoin="round" stroke-miterlimit="10" stroke-width=".316" d="M182.09,78.21c-1.29-1.23-2.77-2.23-3.16-4c-0.38-1.77-1.47-4.48-2.8-6.06c-1.32-1.58-2.65-4.01-3.05-5.25
				c-0.39-1.25-0.32-2.68-1.02-3.23c-0.7-0.55-2.81-0.18-3.77,1.83c-0.97,2.01-0.1,4.43,0.52,5.62c0.01,0.02,0.02,0.04,0.03,0.06
				c-0.55-0.16-1.11-0.39-1.6-0.73l0,0l-9.77-6.67c-1.06-0.72-2.5-0.45-3.23,0.61c-0.58,0.85-0.51,1.93,0.07,2.71l-0.45-0.29
				c-1.06-0.7-2.48-0.4-3.17,0.65c-0.7,1.05-0.4,2.48,0.65,3.17l1.36,0.89c-0.93-0.27-1.98,0.09-2.52,0.96
				c-0.66,1.05-0.35,2.44,0.7,3.11l0.89,0.56c-0.82-0.09-1.66,0.29-2.13,1.05c-0.64,1.05-0.3,2.41,0.75,3.05l8.54,5.18
				c1.62,0.98,8.84,5.6,15.09,7.58c2.67,1.76,6.74,1.57,9.56-2.45C186.42,82.53,183.87,79.49,182.09,78.21z"></path>
      </g>
      <line x1="154.3" x2="163.48" y1="63.09" y2="69.3" fill="none" stroke="#000" stroke-linecap="round" stroke-linejoin="round" stroke-miterlimit="10" stroke-width=".316"></line>
      <line x1="152.71" x2="160.85" y1="67.51" y2="72.27" fill="none" stroke="#000" stroke-linecap="round" stroke-linejoin="round" stroke-miterlimit="10" stroke-width=".316"></line>
      <line x1="151.77" x2="159.91" y1="72.14" y2="76.9" fill="none" stroke="#000" stroke-linecap="round" stroke-linejoin="round" stroke-miterlimit="10" stroke-width=".316"></line>
      <path fill="none" stroke="#000" stroke-linecap="round" stroke-linejoin="round" stroke-miterlimit="10" stroke-width=".316" d="M168.84,67.17c0,0-1.49,3.86,0.98,7.44"></path>
    </g>
    <g>
      <path fill="#fff" stroke="#000" stroke-miterlimit="10" stroke-width=".316" d="M44.64,154.13h113.34c1.65,0,2.99-1.34,2.99-2.99V93.53c0-1.65-1.34-2.99-2.99-2.99H44.64
			c-1.65,0-2.99,1.34-2.99,2.99v57.61C41.66,152.79,42.99,154.13,44.64,154.13z"></path>
      <g>
        <path d="M53.78,120.47h17.84v-17.85C61.77,102.62,53.78,110.61,53.78,120.47z"></path>
        <path fill="#fff" stroke="#000" stroke-miterlimit="10" stroke-width=".316" d="M56.47,123.16c0,9.85,7.99,17.84,17.84,17.84c9.86,0,17.85-7.99,17.85-17.84c0-9.86-7.99-17.85-17.85-17.85
				v17.85H56.47z"></path>
      </g>
      <rect width="36.27" height="28.89" x="112.83" y="107.41" transform="rotate(-180 130.96 121.853)"></rect>
      <line x1="144.92" x2="117" y1="113.97" y2="113.97" fill="none" stroke="#fff" stroke-miterlimit="10" stroke-width=".632"></line>
      <line x1="144.92" x2="117" y1="121.85" y2="121.85" fill="none" stroke="#fff" stroke-miterlimit="10" stroke-width=".632"></line>
      <line x1="144.92" x2="117" y1="129.74" y2="129.74" fill="none" stroke="#fff" stroke-miterlimit="10" stroke-width=".632"></line>
    </g>
    <path fill="#73a580" d="M209.39,79.25l-10.58,5.05c-2.6,1.32-5.08-0.08-7.52-1.8l-11.14-8.12l-9.59,14.19l9.61,8.2
		c7.67,6.92,16.41,11.4,25.27,6.63l6.59-3.55L209.39,79.25z"></path>
    <line x1="244.73" x2="245.22" y1="110.4" y2="101.46" fill="none" stroke="#000" stroke-linecap="round" stroke-linejoin="round" stroke-miterlimit="10" stroke-width=".316"></line>
  </g>
</svg>
